<svg width="165" height="129" viewBox="0 0 165 129" fill="none" xmlns="http://www.w3.org/2000/svg">
<path fill-rule="evenodd" clip-rule="evenodd" d="M150.652 129C154.457 129 158.107 127.49 160.798 124.802C163.488 122.114 165 118.468 165 114.667V14.3333C165 10.5319 163.488 6.88616 160.798 4.19814C158.107 1.51011 154.457 0 150.652 0H14.3478C10.5425 0 6.89312 1.51011 4.20238 4.19814C1.51164 6.88616 0 10.5319 0 14.3333V114.667C0 118.468 1.51164 122.114 4.20238 124.802C6.89312 127.49 10.5425 129 14.3478 129H150.652ZM71.7391 14.3333H57.2837V71.6667H50.1098V114.667H78.913V71.6667H71.7391V14.3333ZM122.064 114.667H150.652V14.3333H129.238V71.6667H122.064V114.667ZM114.89 71.6667H107.716V14.3333H93.2609V71.6667H86.0869V114.667H114.89V71.6667ZM42.9359 114.667V71.6667H35.762V14.3333H14.3478V114.667H42.9359Z" fill="#EC622D"/>
</svg>
