<svg width="16" height="16" viewBox="0 0 16 16" fill="none" xmlns="http://www.w3.org/2000/svg">
<path d="M14.5191 8.94406e-05C14.3616 8.94406e-05 14.1967 0.0530125 14.0767 0.173013L13.8268 0.442551L13.7111 0.346551C13.6826 0.316729 13.6483 0.292997 13.6103 0.276783C13.5723 0.26057 13.5315 0.252211 13.4902 0.252211C13.4489 0.252211 13.4081 0.26057 13.3701 0.276783C13.3321 0.292997 13.2978 0.316729 13.2693 0.346551C13.2395 0.375102 13.2157 0.409394 13.1995 0.447363C13.1833 0.485331 13.1749 0.526189 13.1749 0.567474C13.1749 0.608759 13.1833 0.649617 13.1995 0.687585C13.2157 0.725554 13.2395 0.759847 13.2693 0.788397L13.3653 0.904089L13.2114 1.05794L13.0957 0.96132C13.0672 0.931499 13.0329 0.907766 12.9949 0.891552C12.957 0.875339 12.9161 0.86698 12.8748 0.86698C12.8335 0.86698 12.7927 0.875339 12.7547 0.891552C12.7167 0.907766 12.6824 0.931499 12.6539 0.96132C12.6239 0.989887 12.6 1.02425 12.5837 1.06234C12.5673 1.10042 12.5589 1.14142 12.5589 1.18286C12.5589 1.22429 12.5673 1.2653 12.5837 1.30338C12.6 1.34146 12.6239 1.37583 12.6539 1.4044L12.7499 1.51947L12.6342 1.63455C12.5596 1.70841 12.506 1.80083 12.4789 1.90229C12.4519 2.00375 12.4524 2.11058 12.4804 2.21178L9.78805 4.90409C9.23236 4.41794 8.39174 3.84624 7.48036 3.84624C7.07605 3.84624 6.66067 3.96932 6.24959 4.24994C5.33759 4.87332 5.51236 5.81794 4.9419 6.36563C4.3019 6.98101 2.55236 6.48501 0.941896 8.09609C-0.668566 9.70594 0.04528 11.933 2.09574 13.9041C3.32528 15.1829 4.64836 15.9422 5.86497 15.9422C6.5979 15.9422 7.29759 15.6641 7.90374 15.0579C9.5142 13.4475 9.0182 11.6992 9.6342 11.0579C10.1819 10.4887 11.145 10.6819 11.769 9.76932C12.684 8.43209 11.801 7.01794 11.0957 6.21178L13.7881 3.51947C13.9911 3.57117 14.2059 3.52501 14.3653 3.36563L14.4804 3.24994L14.596 3.34655C14.6225 3.37655 14.6549 3.40061 14.6913 3.41716C14.7277 3.4337 14.7672 3.44236 14.8071 3.44255C14.8937 3.44164 14.9765 3.40697 15.0379 3.34594C15.0677 3.31739 15.0915 3.28309 15.1077 3.24512C15.1239 3.20716 15.1322 3.1663 15.1322 3.12501C15.1322 3.08373 15.1239 3.04287 15.1077 3.0049C15.0915 2.96693 15.0677 2.93264 15.0379 2.90409L14.9419 2.7884L15.0957 2.63455L15.2114 2.73117C15.2378 2.76116 15.2703 2.78522 15.3067 2.80177C15.3431 2.81832 15.3825 2.82697 15.4225 2.82717C15.5091 2.82625 15.5919 2.79159 15.6533 2.73055C15.6831 2.702 15.7068 2.66771 15.723 2.62974C15.7393 2.59177 15.7476 2.55091 15.7476 2.50963C15.7476 2.46834 15.7393 2.42748 15.723 2.38952C15.7068 2.35155 15.6831 2.31726 15.6533 2.28871L15.5573 2.17301L15.8268 1.92317C15.8839 1.86653 15.9293 1.79914 15.9602 1.72489C15.9912 1.65064 16.0071 1.57099 16.0071 1.49055C16.0071 1.41011 15.9912 1.33047 15.9602 1.25621C15.9293 1.18196 15.8839 1.11457 15.8268 1.05794L14.9413 0.172397C14.8863 0.116574 14.8205 0.0725144 14.7479 0.0428943C14.6753 0.0132742 14.5975 -0.0012888 14.5191 8.94406e-05ZM14.4804 0.731166C14.5277 0.731166 14.5788 0.733628 14.6151 0.76932C14.6498 0.805617 14.6692 0.853887 14.6692 0.904089C14.6692 0.954292 14.6498 1.00256 14.6151 1.03886L13.3844 2.26963C13.3485 2.30532 13.3002 2.32581 13.2496 2.32686C13.1991 2.32549 13.1511 2.30478 13.1154 2.26901C13.0809 2.23275 13.0617 2.18461 13.0617 2.13455C13.0617 2.0845 13.0809 2.03635 13.1154 2.00009L14.3462 0.76932C14.3819 0.733628 14.4336 0.731166 14.4804 0.731166ZM15.0957 1.34655C15.1431 1.34655 15.1942 1.3484 15.2305 1.3847C15.2653 1.42093 15.2848 1.46923 15.2848 1.51947C15.2848 1.56972 15.2653 1.61802 15.2305 1.65424L13.9997 2.88501C13.9638 2.9207 13.9156 2.9412 13.865 2.94224C13.8146 2.94104 13.7666 2.92056 13.7308 2.88501C13.6961 2.84872 13.6768 2.80045 13.6768 2.75024C13.6768 2.70004 13.6961 2.65177 13.7308 2.61547L14.9616 1.3847C14.9973 1.34901 15.049 1.34655 15.0957 1.34655ZM7.48036 4.71086C8.07113 4.71086 8.69513 5.11209 9.17267 5.51886L7.11482 7.57671C7.06928 7.57178 7.02743 7.55701 6.98067 7.55701C6.59344 7.55831 6.22245 7.71271 5.94864 7.98652C5.67482 8.26033 5.52042 8.63133 5.51913 9.01855C5.52042 9.40578 5.67482 9.77677 5.94864 10.0506C6.22245 10.3244 6.59344 10.4788 6.98067 10.4801C7.36789 10.4788 7.73888 10.3244 8.0127 10.0506C8.28651 9.77677 8.44091 9.40578 8.4422 9.01855C8.4422 8.97178 8.42743 8.92994 8.42313 8.88378L10.4994 6.80747C11.0336 7.42655 11.6367 8.42224 11.0576 9.26901C10.8693 9.54347 10.6324 9.6444 10.2114 9.78778C9.84097 9.91394 9.37759 10.0678 8.99974 10.461C8.58497 10.8924 8.49267 11.4598 8.38436 12.0573C8.24774 12.8075 8.09451 13.6555 7.28836 14.461C6.86497 14.8844 6.39851 15.0955 5.86497 15.0955C4.93143 15.0955 3.81143 14.4518 2.71113 13.3072L2.69205 13.2881C1.55666 12.1982 0.912972 11.0832 0.903742 10.1539C0.897588 9.61178 1.10928 9.14163 1.5382 8.71147C2.34436 7.90532 3.19236 7.75147 3.9419 7.61547C4.53943 7.50717 5.10743 7.39578 5.5382 6.98101C5.92836 6.60686 6.08282 6.15455 6.21143 5.7884C6.35913 5.3687 6.45143 5.15209 6.73082 4.96132C6.96959 4.79824 7.21697 4.71086 7.48036 4.71086ZM3.42251 10.0186C3.37203 10.0199 3.324 10.0406 3.28836 10.0764L2.90374 10.4616C2.86849 10.4976 2.84874 10.546 2.84874 10.5964C2.84874 10.6468 2.86849 10.6952 2.90374 10.7312L5.26867 13.0961C5.34128 13.1681 5.46559 13.1681 5.5382 13.0961L5.92282 12.7115C5.9576 12.6754 5.97704 12.6272 5.97704 12.577C5.97704 12.5269 5.9576 12.4787 5.92282 12.4426L3.55728 10.077C3.52163 10.0412 3.47361 10.0205 3.42313 10.0192L3.42251 10.0186Z" fill="#EC622D"/>
</svg>
