<svg width="512" height="512" viewBox="0 0 512 512" fill="none" xmlns="http://www.w3.org/2000/svg">
<path d="M162.5 1.62483C163.55 1.62515 163.55 1.62515 164.622 1.62547C176.453 1.66099 187.592 2.75219 199 5.99983C200 6.27271 200 6.27271 201.021 6.5511C232.399 15.3009 260.983 37.6486 277.187 65.8748C278.495 68.2311 279.757 70.6087 281 72.9998C281.466 73.8849 281.466 73.8849 281.941 74.7879C291.493 93.1816 295.435 112.84 295.375 133.5C295.374 134.551 295.374 134.551 295.373 135.624C295.331 147.45 294.323 158.61 291 170C290.796 170.716 290.592 171.431 290.382 172.169C285.306 189.427 276.695 205.359 265 219C264.565 219.511 264.131 220.022 263.684 220.549C243.577 244.027 214.186 261.892 183 265C183.021 265.579 183.042 266.159 183.063 266.756C183.147 269.4 183.198 272.043 183.25 274.687C183.3 276.055 183.3 276.055 183.351 277.451C183.412 281.654 183.361 284.32 181.359 288.082C178.539 290.374 176.545 290.527 173 291C173.084 310.498 173.179 329.996 173.287 349.494C173.337 358.548 173.384 367.602 173.422 376.656C173.455 384.551 173.494 392.446 173.542 400.341C173.568 404.518 173.589 408.695 173.603 412.872C173.616 416.811 173.638 420.75 173.667 424.689C173.676 426.128 173.682 427.566 173.684 429.005C173.709 443.527 174.708 456.006 184.8 467.105C191.373 472.768 199.559 476.097 208.188 476.158C209.237 476.168 210.286 476.178 211.367 476.188C213.084 476.196 213.084 476.196 214.837 476.205C216.652 476.22 216.652 476.22 218.503 476.235C221.817 476.261 225.131 476.283 228.444 476.303C231.909 476.325 235.374 476.352 238.838 476.379C245.397 476.429 251.956 476.474 258.515 476.517C265.983 476.567 273.451 476.622 280.919 476.677C296.279 476.791 311.639 476.898 327 477C326.938 475.358 326.938 475.358 326.876 473.682C327 470 327 470 328.98 467.082C332.95 464.345 335.625 464.415 340.312 464.687C341.053 464.71 341.793 464.732 342.556 464.756C344.372 464.814 346.186 464.904 348 465C348 461.37 348 457.74 348 454C346.983 453.888 345.966 453.776 344.918 453.66C326.137 450.496 308.975 436.418 298.168 421.363C287.034 404.585 282.849 387.234 282.832 367.262C282.828 365.944 282.825 364.627 282.822 363.27C282.816 360.496 282.814 357.721 282.814 354.947C282.814 351.388 282.801 347.829 282.784 344.27C282.77 340.872 282.77 337.473 282.769 334.074C282.762 332.794 282.755 331.514 282.747 330.195C282.75 329.016 282.754 327.838 282.757 326.624C282.755 325.583 282.754 324.543 282.752 323.471C283 321 283 321 285 319C287.601 318.805 287.601 318.805 290.625 318.875C291.628 318.893 292.63 318.911 293.664 318.93C294.82 318.964 294.82 318.964 296 319C296.103 317.907 296.206 316.814 296.312 315.687C297 312 297 312 298.437 310.062C300 309 300 309 302 309C301.99 307.367 301.99 307.367 301.979 305.702C301.918 295.404 301.874 285.107 301.844 274.809C301.829 269.516 301.807 264.223 301.773 258.93C301.741 253.814 301.723 248.698 301.715 243.583C301.71 241.639 301.699 239.695 301.682 237.751C301.534 219.351 303.696 202.906 317 189C331.698 176.317 346.683 173.632 365.441 173.684C367.798 173.687 370.153 173.664 372.509 173.639C389.244 173.566 405.564 176.164 418.316 188.09C428.951 200.155 434.185 212.754 434.113 228.851C434.113 229.72 434.113 230.589 434.114 231.484C434.113 234.341 434.105 237.198 434.097 240.055C434.095 242.041 434.094 244.028 434.093 246.015C434.089 251.233 434.079 256.451 434.068 261.669C434.058 266.998 434.054 272.327 434.048 277.656C434.038 288.104 434.021 298.552 434 309C434.951 309.437 434.951 309.437 435.922 309.883C438.488 311.262 439.04 312.281 440 315C440 316.32 440 317.64 440 319C440.771 318.977 441.541 318.953 442.336 318.93C443.338 318.911 444.341 318.893 445.375 318.875C446.372 318.852 447.37 318.828 448.398 318.805C451 319 451 319 453 321C453.26 323.417 453.26 323.417 453.274 326.497C453.284 327.649 453.293 328.802 453.303 329.99C453.302 331.872 453.302 331.872 453.3 333.793C453.305 335.086 453.309 336.38 453.313 337.712C453.321 340.462 453.321 343.212 453.315 345.961C453.31 349.442 453.326 352.922 453.35 356.402C453.368 359.762 453.364 363.121 453.363 366.48C453.372 367.709 453.381 368.938 453.391 370.204C453.263 394.752 444.02 416.394 427 434C417.39 443.132 401.705 454 388 454C388 457.63 388 461.26 388 465C389.097 464.942 390.194 464.884 391.324 464.824C392.778 464.777 394.233 464.732 395.687 464.687C396.408 464.645 397.13 464.604 397.873 464.56C401.906 464.468 403.589 464.713 407 467.094C410.499 472.179 409.304 476.982 409 483C416.26 483 423.52 483 431 483C431 479.37 431 475.74 431 472C434 470 434 470 436.062 470.25C438 471 438 471 440 473C440.398 477.117 440.329 481.241 440.315 485.376C440.312 487.426 440.336 489.475 440.361 491.525C440.362 492.815 440.362 494.105 440.363 495.433C440.367 497.213 440.367 497.213 440.372 499.029C440 502 440 502 438.641 503.926C437 505 437 505 434.375 504.75C432 504 432 504 431 503C431 499.37 431 495.74 431 492C423.74 492 416.48 492 409 492C409.103 494.042 409.206 496.084 409.312 498.187C409.527 502.434 409.565 504.278 406.913 507.668C403.3 510.56 401.488 510.632 396.902 510.647C396.207 510.656 395.512 510.664 394.796 510.673C392.509 510.695 390.224 510.681 387.937 510.664C386.342 510.667 384.747 510.672 383.152 510.678C379.813 510.686 376.474 510.675 373.135 510.652C368.861 510.623 364.588 510.64 360.314 510.67C357.021 510.688 353.729 510.682 350.436 510.669C348.861 510.666 347.285 510.67 345.71 510.681C343.505 510.694 341.302 510.675 339.097 510.647C337.218 510.641 337.218 510.641 335.301 510.635C331.005 509.809 329.52 508.55 327 505C326.687 501.187 326.687 501.187 327 498C326.364 498.004 325.729 498.007 325.074 498.011C309.546 498.1 294.019 498.166 278.492 498.207C270.982 498.228 263.473 498.256 255.964 498.302C249.413 498.342 242.861 498.367 236.309 498.376C232.846 498.381 229.383 498.393 225.92 498.423C203.161 498.608 185.634 497.666 168.32 481.41C158.754 471.474 152.869 459.141 152.879 445.286C152.879 444.625 152.878 443.963 152.877 443.281C152.875 441.072 152.881 438.862 152.886 436.653C152.886 435.066 152.886 433.479 152.886 431.892C152.885 427.589 152.891 423.286 152.898 418.982C152.905 414.483 152.905 409.984 152.906 405.485C152.909 396.968 152.918 388.451 152.928 379.933C152.939 370.236 152.944 360.538 152.949 350.84C152.96 330.893 152.977 310.947 153 291C152.058 290.874 151.117 290.749 150.147 290.62C147 290 147 290 144.64 288.082C142.26 283.609 142.567 279.666 142.75 274.687C142.768 273.756 142.786 272.825 142.804 271.865C142.851 269.576 142.917 267.288 143 265C142.065 264.864 141.131 264.729 140.168 264.59C117.173 260.949 95.6915 251.122 77.9997 236C77.2286 235.346 77.2286 235.346 76.442 234.68C55.2264 216.506 41.0869 192.913 33.9997 166C33.68 164.867 33.3603 163.734 33.0309 162.566C28.2035 142.162 29.3526 118.073 34.9997 97.9998C35.3271 96.7443 35.6545 95.4887 35.9918 94.1951C45.4436 62.1144 69.2399 33.6555 98.4371 17.6649C110.163 11.5113 122.01 6.68566 135 3.99983C136.311 3.72599 136.311 3.72599 137.65 3.44661C145.927 1.88617 154.093 1.6013 162.5 1.62483ZM292 328C291.923 335.149 291.871 342.298 291.835 349.448C291.82 351.874 291.799 354.3 291.773 356.727C291.506 382.184 294.38 404.246 312.605 423.558C313.395 424.364 314.186 425.17 315 426C315.738 426.775 316.477 427.549 317.238 428.347C325.735 436.674 336.533 442.04 348 445C348 441.7 348 438.4 348 435C346.744 434.382 345.489 433.765 344.195 433.129C330.526 426.27 320.088 419.336 312 406C311.538 405.243 311.077 404.486 310.601 403.707C302.683 389.382 302.447 374.092 302.5 358.187C302.512 354.43 302.498 350.675 302.468 346.918C302.48 346.065 302.491 345.212 302.503 344.333C302.525 341.676 302.525 341.676 302 338C300.148 336.125 300.148 336.125 298 335C296.75 331.312 296.75 331.312 296 328C294.68 328 293.36 328 292 328ZM440 328C439.818 328.554 439.636 329.108 439.449 329.68C439.072 330.766 439.072 330.766 438.687 331.875C438.444 332.594 438.2 333.313 437.949 334.055C437 336 437 336 434 338C433.71 341.005 433.607 343.814 433.629 346.82C433.611 348.655 433.594 350.489 433.576 352.324C433.566 355.202 433.562 358.08 433.564 360.958C433.535 383.264 429.925 402.191 414 419C406.462 426.353 397.43 430.601 388 435C388 438.3 388 441.6 388 445C401.458 441.737 412.327 434.788 422 425C422.769 424.252 423.539 423.505 424.332 422.734C438.851 407.795 444.193 388.462 444.097 368.039C444.096 366.893 444.094 365.747 444.093 364.567C444.087 360.92 444.075 357.272 444.062 353.625C444.057 351.147 444.053 348.669 444.048 346.191C444.037 340.127 444.021 334.064 444 328C442.68 328 441.36 328 440 328Z" fill="#EC622D" fill-opacity="0.35"/>
<path d="M196 13.9999C196.66 14.1712 197.319 14.3425 197.999 14.519C214.705 18.9897 229.9 27.8591 243 38.9999C243.868 39.7167 244.735 40.4334 245.629 41.1718C257.14 51.0439 265.862 62.6875 273 75.9999C273.325 76.6056 273.65 77.2113 273.984 77.8354C288.446 105.403 291.278 139.377 282.559 169.246C277.241 185.894 269.257 200.666 258 214C257.22 214.944 256.44 215.887 255.637 216.859C235.806 239.838 205.689 255.093 175.449 257.719C139.262 260.245 106.601 249.597 79.0581 225.887C55.8235 205.106 40.7495 174.309 38.8242 143.156C37.3895 110.981 46.1074 79.9428 67 55C67.4259 54.4851 67.8517 53.9703 68.2905 53.4399C99.3093 16.3906 149.582 1.48199 196 13.9999ZM82 68C66.7697 86.2346 58.5536 110.147 58.6875 133.75C58.6931 134.801 58.6988 135.851 58.7046 136.934C59.1345 164.616 71.5978 190.298 91.2168 209.632C103.708 221.49 119.266 230.609 136 235C136.721 235.191 137.441 235.382 138.184 235.578C164.738 242.021 192.947 237.28 216.438 223.637C241.006 207.944 257.827 185.369 265 157C265.338 155.679 265.338 155.679 265.684 154.332C271.355 127.228 264.603 99.1361 250 75.9999C237.905 58.8635 222.57 47.2749 204 37.9999C203.181 37.5862 202.363 37.1724 201.52 36.746C159.318 17.6994 111.389 35.4859 82 68Z" fill="#EC622D"/>
<path d="M349.341 182.791C350.217 182.772 351.092 182.753 351.994 182.733C356.033 182.675 360.072 182.626 364.111 182.595C366.226 182.574 368.341 182.54 370.455 182.493C386.221 182.145 397.998 182.855 410.5 193.375C418.234 200.982 424.634 209.132 425.159 220.411C425.14 221.551 425.121 222.69 425.102 223.863C425.087 225.017 425.072 226.172 425.057 227.361C425.038 228.232 425.019 229.103 425 230C423.971 230.009 422.942 230.019 421.882 230.028C418.046 230.068 414.211 230.134 410.376 230.208C408.72 230.236 407.063 230.257 405.406 230.271C403.018 230.293 400.63 230.339 398.242 230.391C397.14 230.393 397.14 230.393 396.016 230.394C390.898 230.539 387.958 231.792 384 235C381.892 237.97 381.813 240.009 382.312 243.563C382.412 244.327 382.511 245.091 382.613 245.879C382.981 248.178 382.981 248.178 384 251C388.272 253.45 392.786 253.343 397.582 253.414C398.396 253.434 399.21 253.453 400.049 253.473C402.637 253.532 405.225 253.579 407.812 253.625C409.572 253.663 411.332 253.702 413.092 253.742C417.394 253.838 421.697 253.922 426 254C426 258.62 426 263.24 426 268C424.911 268.004 423.821 268.008 422.699 268.013C418.639 268.034 414.581 268.089 410.521 268.153C408.768 268.176 407.014 268.19 405.261 268.196C402.733 268.205 400.207 268.246 397.68 268.293C396.901 268.289 396.123 268.285 395.321 268.281C389.573 268.434 387.023 269.88 383 274C381.445 277.11 381.714 279.563 382 283C384.027 286.704 385.48 288.654 389 291C391.824 291.241 394.559 291.373 397.387 291.414C398.204 291.434 399.021 291.453 399.863 291.473C402.471 291.533 405.079 291.579 407.688 291.625C409.456 291.663 411.225 291.702 412.994 291.742C417.329 291.84 421.664 291.92 426 292C426 297.61 426 303.22 426 309C387.72 309 349.44 309 310 309C310 303.39 310 297.78 310 292C312.529 291.974 315.058 291.949 317.664 291.922C320.127 291.883 322.589 291.838 325.051 291.793C326.756 291.764 328.461 291.743 330.167 291.729C332.625 291.708 335.081 291.661 337.539 291.609C338.296 291.608 339.052 291.607 339.831 291.606C344.968 291.465 347.893 290.333 352 287C354.591 283.585 354.503 280.167 354 276C351.983 272.524 349.886 270.296 346 269C343.271 268.846 340.563 268.743 337.832 268.684C337.037 268.663 336.242 268.642 335.424 268.621C332.887 268.555 330.35 268.496 327.812 268.438C326.092 268.394 324.371 268.351 322.65 268.307C318.434 268.2 314.217 268.098 310 268C310 263.38 310 258.76 310 254C311.059 253.98 312.118 253.96 313.209 253.94C317.157 253.864 321.104 253.775 325.051 253.683C326.756 253.645 328.461 253.61 330.167 253.578C332.624 253.532 335.082 253.474 337.539 253.414C338.296 253.403 339.052 253.391 339.831 253.379C344.223 253.258 347.972 252.805 352 251C353.977 247.046 354.547 243.376 354 239C351.866 235.037 350.251 232.537 346 231C343.288 230.764 340.668 230.628 337.953 230.586C336.796 230.557 336.796 230.557 335.616 230.527C333.161 230.468 330.706 230.421 328.25 230.375C326.582 230.337 324.914 230.298 323.246 230.258C319.164 230.162 315.082 230.078 311 230C310.957 227.953 310.927 225.906 310.902 223.859C310.884 222.72 310.866 221.58 310.847 220.405C311.366 208.836 318.21 200.445 326.25 192.75C332.533 187.342 340.933 182.965 349.341 182.791Z" fill="#EC622D"/>
<path d="M310 338C348.28 338 386.56 338 426 338C426 395.511 426 395.511 410.832 411.359C395.175 425.381 380.376 429.882 359.611 429.175C347.526 428.366 334.195 420.836 326 412C307.442 389.679 310 367.948 310 338Z" fill="#EC622D"/>
<path d="M231 44.5627C232.675 46.0315 234.343 47.51 236 49.0002C236.752 49.6112 237.505 50.2222 238.281 50.8517C258.271 67.393 269.318 92.0342 274 117C274.194 117.964 274.389 118.929 274.589 119.922C278.359 148.213 270.421 176.81 253.929 199.899C252.019 202.333 250.037 204.672 248 207C247.41 207.732 246.821 208.465 246.214 209.219C229.471 229.41 202.183 242.946 176.277 245.805C144.677 248.508 115.737 240.006 90.9996 220C90.1965 219.352 89.3934 218.703 88.566 218.035C66.8022 199.591 54.1878 171.992 50.9996 144C48.6578 112.67 58.6109 83.8167 78.6246 59.8166C115.876 16.5725 186.055 8.25667 231 44.5627ZM81.9996 68.0002C66.7693 86.2348 58.5531 110.147 58.6871 133.75C58.6927 134.801 58.6983 135.851 58.7042 136.934C59.134 164.616 71.5974 190.298 91.2164 209.632C103.708 221.49 119.266 230.609 136 235C136.72 235.191 137.441 235.382 138.183 235.578C164.738 242.021 192.946 237.28 216.437 223.637C241.006 207.944 257.826 185.369 265 157C265.338 155.68 265.338 155.68 265.683 154.332C271.354 127.228 264.602 99.1363 250 76.0002C237.905 58.8637 222.57 47.2751 204 38.0002C203.181 37.5864 202.362 37.1726 201.519 36.7463C159.318 17.6997 111.388 35.4861 81.9996 68.0002Z" fill="#EC622D"/>
<path d="M305 317C346.58 317 388.16 317 431 317C431 321.29 431 325.58 431 330C389.42 330 347.84 330 305 330C305 325.71 305 321.42 305 317Z" fill="#EC622D" fill-opacity="0.36"/>
<path d="M161 291C162.32 291 163.64 291 165 291C165.002 291.797 165.003 292.594 165.005 293.416C165.042 312.856 165.101 332.297 165.184 351.737C165.224 361.139 165.257 370.54 165.271 379.942C165.285 388.141 165.312 396.34 165.355 404.539C165.378 408.876 165.393 413.213 165.392 417.55C165.392 421.642 165.41 425.733 165.442 429.825C165.45 431.317 165.452 432.81 165.446 434.302C165.399 448.665 167.879 461.562 178.106 472.188C182.643 476.436 187.2 479.734 193 482C193.776 482.34 194.551 482.679 195.35 483.029C200.703 484.453 205.914 484.309 211.432 484.319C212.681 484.329 213.93 484.339 215.217 484.349C218.63 484.375 222.043 484.392 225.456 484.405C229.027 484.42 232.599 484.447 236.17 484.473C242.927 484.519 249.684 484.556 256.442 484.589C264.137 484.628 271.832 484.677 279.527 484.727C295.352 484.831 311.176 484.92 327 485C327 486.32 327 487.64 327 489C310.614 489.07 294.228 489.123 277.842 489.155C270.233 489.171 262.624 489.192 255.015 489.226C248.38 489.256 241.744 489.276 235.109 489.282C231.598 489.286 228.088 489.295 224.578 489.317C220.65 489.342 216.722 489.342 212.794 489.341C211.642 489.351 210.491 489.362 209.304 489.373C194.825 489.318 183.798 484.327 173.293 474.441C162.406 462.849 160.389 448.312 160.546 433.02C160.547 431.462 160.547 429.903 160.545 428.345C160.543 424.155 160.567 419.966 160.595 415.777C160.62 411.384 160.622 406.99 160.627 402.597C160.639 394.295 160.672 385.994 160.712 377.693C160.757 368.235 160.779 358.777 160.799 349.318C160.841 329.879 160.911 310.439 161 291Z" fill="#EC622D"/>
<path d="M357 437C364.26 437 371.52 437 379 437C379 446.24 379 455.48 379 465C371.74 465 364.48 465 357 465C357 455.76 357 446.52 357 437Z" fill="#EC622D"/>
<path d="M175 265C175.027 267.813 175.047 270.625 175.062 273.438C175.071 274.24 175.079 275.042 175.088 275.869C175.096 277.913 175.052 279.957 175 282C173.346 283.654 171.397 283.13 169.125 283.133C168.14 283.134 167.155 283.135 166.14 283.137C165.104 283.133 164.068 283.129 163 283.125C161.445 283.131 161.445 283.131 159.859 283.137C158.874 283.135 157.89 283.134 156.875 283.133C155.965 283.132 155.055 283.131 154.117 283.129C152 283 152 283 151 282C150.927 279.303 150.907 276.633 150.937 273.938C150.942 273.179 150.946 272.42 150.951 271.639C150.963 269.759 150.981 267.88 151 266C154.812 265.833 158.625 265.666 162.437 265.5C163.526 265.452 164.615 265.405 165.736 265.355C166.771 265.31 167.805 265.265 168.871 265.219C169.829 265.177 170.788 265.135 171.775 265.092C174 265 174 265 175 265Z" fill="#EC622D"/>
<path d="M394.326 275.887C395.802 275.887 397.278 275.893 398.754 275.903C399.529 275.904 400.305 275.905 401.104 275.907C403.59 275.912 406.076 275.925 408.562 275.938C410.244 275.943 411.926 275.947 413.607 275.951C417.738 275.962 421.869 275.98 426 276C426 278.64 426 281.28 426 284C421.052 284.05 416.104 284.086 411.156 284.11C409.472 284.12 407.788 284.134 406.104 284.151C403.687 284.175 401.269 284.187 398.852 284.196C398.096 284.206 397.341 284.216 396.563 284.227C394.707 284.227 392.852 284.122 391 284C390.34 283.34 389.68 282.68 389 282C389.726 276.044 389.726 276.044 394.326 275.887Z" fill="#EC622D"/>
<path d="M310 276C314.948 275.951 319.896 275.914 324.844 275.89C326.528 275.88 328.212 275.866 329.896 275.849C332.313 275.825 334.731 275.814 337.148 275.805C337.904 275.794 338.659 275.784 339.437 275.773C341.293 275.773 343.148 275.878 345 276C345.66 276.66 346.32 277.32 347 278C346.444 282.556 346.444 282.556 345 284C342.406 284.089 339.84 284.115 337.246 284.098C336.471 284.096 335.695 284.095 334.896 284.093C332.41 284.088 329.924 284.075 327.438 284.063C325.756 284.058 324.074 284.053 322.393 284.049C318.262 284.038 314.131 284.021 310 284C310 281.36 310 278.72 310 276Z" fill="#EC622D"/>
<path d="M394.326 237.887C395.802 237.887 397.278 237.893 398.754 237.903C399.529 237.904 400.305 237.905 401.104 237.907C403.59 237.912 406.076 237.925 408.562 237.938C410.244 237.943 411.926 237.947 413.607 237.951C417.738 237.962 421.869 237.98 426 238C426 240.64 426 243.28 426 246C421.052 246.05 416.104 246.086 411.156 246.11C409.472 246.12 407.788 246.134 406.104 246.151C403.687 246.175 401.269 246.187 398.852 246.196C398.096 246.206 397.341 246.216 396.563 246.227C394.707 246.227 392.852 246.122 391 246C390.34 245.34 389.68 244.68 389 244C389.726 238.044 389.726 238.044 394.326 237.887Z" fill="#EC622D"/>
<path d="M310 238C314.787 237.951 319.574 237.914 324.362 237.89C325.99 237.88 327.619 237.866 329.247 237.849C331.588 237.825 333.929 237.814 336.27 237.805C337.362 237.789 337.362 237.789 338.476 237.773C342.213 237.773 343.807 237.871 347 240C346.125 244.875 346.125 244.875 345 246C342.406 246.089 339.84 246.115 337.246 246.098C336.471 246.096 335.695 246.095 334.896 246.093C332.41 246.088 329.924 246.075 327.438 246.063C325.756 246.058 324.074 246.053 322.393 246.049C318.262 246.038 314.131 246.021 310 246C310 243.36 310 240.72 310 238Z" fill="#EC622D"/>
<rect x="327" y="465" width="82" height="47" rx="8" fill="#EC622D"/>
</svg>
