<svg width="512" height="512" viewBox="0 0 512 512" fill="none" xmlns="http://www.w3.org/2000/svg">
<g clip-path="url(#clip0_63_11)">
<rect width="512" height="512" fill="white"/>
<path d="M427.774 154.213C436.444 161.515 440.075 170.048 441.902 180.315C441.738 192.05 437.044 200.337 429.986 209.892C429.097 211.129 428.208 212.365 427.292 213.639C424.37 217.694 421.417 221.732 418.463 225.769C416.413 228.601 414.364 231.434 412.317 234.267C408.046 240.172 403.762 246.069 399.469 251.961C393.035 260.796 386.649 269.657 380.269 278.522C377.229 282.738 374.188 286.953 371.146 291.167C369.209 293.852 367.272 296.537 365.338 299.223C333.001 344.064 333.001 344.064 311.525 348.705C292.869 348.125 277.302 340.599 260.846 333.553C258.062 332.374 255.277 331.196 252.492 330.02C245.206 326.939 237.929 323.84 230.655 320.737C223.213 317.567 215.762 314.414 208.311 311.259C193.726 305.08 179.15 298.882 164.581 292.673C184.381 306.418 204.379 319.877 224.652 333.065C228.397 335.506 232.141 337.947 235.884 340.39C238.174 341.883 240.464 343.376 242.756 344.867C244.92 346.276 247.065 347.708 249.193 349.159C252.883 351.585 252.883 351.585 257.504 353.721C265.123 357.772 269.696 360.567 271.945 368.425C272.424 375.049 272.322 381.485 272.008 388.109C271.957 390.534 271.914 392.959 271.878 395.384C271.763 401.74 271.54 408.091 271.295 414.444C271.066 420.919 270.944 427.395 270.811 433.872C270.599 443.32 270.352 452.767 270.013 462.212C269.946 464.11 269.879 466.008 269.81 467.963C269.514 472.609 269.514 472.609 268.337 477.361C194.817 462.983 121.297 448.606 45.5484 433.793C44.815 427.617 44.1862 422.095 44.2091 415.991C44.2116 414.563 44.2142 413.136 44.2168 411.664C44.2261 410.129 44.2354 408.593 44.2449 407.011C44.2501 405.369 44.2552 403.727 44.2605 402.035C44.2803 396.615 44.3106 391.196 44.3436 385.776C44.3543 383.915 44.365 382.054 44.376 380.137C44.4343 370.278 44.5018 360.42 44.5757 350.561C44.6495 340.435 44.6888 330.31 44.7204 320.184C44.7516 312.35 44.8101 304.516 44.8755 296.681C44.9018 292.952 44.918 289.223 44.9233 285.494C45.0323 227.55 45.0323 227.55 66.2355 208.762C81.2112 197.505 99.7015 195.5 118.619 195.777C120.671 195.784 122.723 195.791 124.837 195.798C129.315 195.817 133.793 195.85 138.27 195.895C144.708 195.951 151.143 195.969 157.58 195.967C163.08 195.965 168.579 195.976 174.079 195.989C176.744 195.995 179.409 195.998 182.074 195.999C233.072 196.062 233.072 196.062 252.453 211.363C262.226 220.114 266.912 227.914 269.172 240.06C246.234 235.575 223.295 231.089 199.662 226.467C209.102 230.442 209.102 230.442 218.732 234.497C224.814 237.06 230.895 239.623 236.976 242.187C241.209 243.97 245.442 245.753 249.675 247.536C255.754 250.095 261.831 252.657 267.907 255.219C270.756 256.417 270.756 256.417 273.661 257.639C276.303 258.754 276.303 258.754 278.997 259.891C280.549 260.545 282.101 261.199 283.7 261.872C287.636 263.598 287.636 263.598 292.59 266.228C293.142 265.327 293.693 264.427 294.261 263.5C299.852 254.463 305.775 245.681 312.001 236.98C312.951 235.647 313.902 234.313 314.881 232.939C316.885 230.129 318.892 227.32 320.901 224.513C323.899 220.322 326.886 216.125 329.872 211.928C334.772 205.054 339.713 198.205 344.686 191.374C346.658 188.663 348.621 185.947 350.576 183.227C353.418 179.286 356.298 175.369 359.19 171.456C360.022 170.291 360.853 169.126 361.71 167.926C369.172 157.971 378.583 150.99 390.813 145.947C403.565 145.136 417.371 147.285 427.774 154.213Z" fill="#EC622D"/>
<path d="M227.121 32.5678C228.48 33.5571 229.84 34.5465 231.24 35.5658C250.736 50.8121 258.699 68.8106 261.397 91.5274C261.522 97.6948 260.815 103.327 259.713 109.413C259.185 112.389 259.185 112.389 258.647 115.425C258.37 116.914 258.093 118.403 257.807 119.938C258.835 119.357 259.863 118.777 260.922 118.179C273.997 111.235 285.074 108.648 300.196 110.998C315.22 114.575 324.59 121.248 333.185 132.739C337.107 138.83 339.879 143.821 339.828 150.923C338.234 154.277 338.234 154.277 335.895 157.756C335.04 159.045 334.184 160.334 333.303 161.662C332.398 163 331.492 164.338 330.559 165.716C329.713 167.037 328.867 168.359 327.996 169.72C325.393 173.761 322.681 177.729 319.945 181.699C318.642 183.743 318.642 183.743 317.312 185.829C313.336 191.5 310.522 195.375 303.322 197.761C287.595 200.296 272.98 198.117 259.511 190.288C248.569 182.149 241.888 172.311 239.793 159.791C239.4 155.251 239.469 150.879 240.054 146.356C239.075 147.109 238.096 147.861 237.087 148.637C216.701 164.038 196.271 174.116 168.446 173.011C144.032 170.324 122.06 161.882 105.844 145.019C105.004 144.159 104.165 143.299 103.299 142.413C89.3311 127.221 83.6078 107.229 84.9758 87.8317C88.2155 66.2659 98.3249 48.6773 116.474 34.1779C118.157 32.8288 119.84 31.4797 121.574 30.0897C151.426 10.457 198.661 11.3973 227.121 32.5678Z" fill="#EC622D"/>
<path d="M463.878 208.393C479.209 217.865 479.209 217.865 481.866 227.336C482.695 235.348 479.122 241.909 474.463 248.657C468.883 252.835 463.334 254.342 456.068 255.023C453.621 269.208 452.418 283.267 451.723 297.598C451.607 299.858 451.489 302.118 451.371 304.377C451.12 309.2 450.876 314.023 450.636 318.846C450.256 326.475 449.863 334.103 449.467 341.731C448.773 355.156 448.09 368.582 447.41 382.008C446.384 402.263 445.35 422.517 444.303 442.771C443.912 450.354 443.527 457.937 443.147 465.521C442.91 470.227 442.668 474.934 442.425 479.641C442.26 482.864 442.101 486.088 441.943 489.311C441.793 492.186 441.793 492.186 441.64 495.12C441.555 496.786 441.471 498.452 441.384 500.168C441.01 504.487 441.01 504.487 439.441 510.823C427.09 508.407 414.738 505.992 402.012 503.503C401.511 496.289 401.113 489.827 401.482 482.724C401.566 481.028 401.651 479.331 401.738 477.583C401.837 475.758 401.936 473.933 402.037 472.052C402.137 470.101 402.236 468.151 402.339 466.142C402.613 460.82 402.893 455.498 403.178 450.176C403.415 445.72 403.648 441.264 403.882 436.808C404.434 426.289 404.993 415.77 405.558 405.251C406.138 394.429 406.703 383.606 407.26 372.783C407.741 363.464 408.233 354.144 408.732 344.825C409.03 339.272 409.323 333.718 409.606 328.164C409.924 321.965 410.26 315.767 410.601 309.569C410.69 307.748 410.78 305.928 410.872 304.052C412.327 278.511 412.327 278.511 420.375 267.564C421.827 265.556 421.827 265.556 423.307 263.507C424.346 262.116 425.386 260.726 426.456 259.293C427.524 257.827 428.592 256.362 429.693 254.852C433.082 250.211 436.504 245.59 439.928 240.969C442.243 237.811 444.556 234.651 446.867 231.49C452.512 223.776 458.184 216.079 463.878 208.393Z" fill="#EC622D"/>
</g>
<defs>
<clipPath id="clip0_63_11">
<rect width="512" height="512" fill="white"/>
</clipPath>
</defs>
</svg>
