<svg width="713" height="602" viewBox="0 0 713 602" fill="none" xmlns="http://www.w3.org/2000/svg">
<path d="M637.181 29.828C704.875 78.1336 722.092 196.307 708.887 301.276C695.682 406.244 652.057 498.009 584.362 539.795C516.667 581.582 424.903 573.392 323.277 583.254C221.652 593.116 110.164 621.029 53.6681 579.242C-2.99492 537.455 -4.49925 425.968 3.52384 322.504C11.5469 219.206 29.4317 123.765 85.9276 75.6264C142.424 27.4879 237.865 26.3179 344.505 14.9518C451.312 3.5858 569.486 -18.3105 637.181 29.828Z" fill="#FF4700" fill-opacity="0.16"/>
<path d="M367.005 507.291C494.58 507.291 598 500.417 598 491.938C598 483.458 494.58 476.584 367.005 476.584C239.43 476.584 136.01 483.458 136.01 491.938C136.01 500.417 239.43 507.291 367.005 507.291Z" fill="#4B4B4B" fill-opacity="0.21"/>
<path d="M246.38 186.735C245.699 186.229 244.891 185.99 244.08 186.057C243.621 186.093 243.159 186.024 242.724 185.853C242.288 185.683 241.886 185.416 241.543 185.067L241.447 184.741C241.438 184.712 241.424 184.686 241.406 184.664C241.387 184.642 241.365 184.624 241.341 184.611C241.317 184.598 241.29 184.591 241.264 184.59C241.237 184.589 241.21 184.595 241.185 184.605C241.133 184.619 241.086 184.654 241.055 184.704C241.024 184.754 241.011 184.816 241.018 184.877L244.593 197.369C244.287 197.218 243.96 197.131 243.628 197.111C242.776 197.074 241.928 197.26 241.149 197.653C239.398 198.521 238.374 200.108 238.862 201.18C239.351 202.251 240.721 202.36 242.222 201.858C242.474 201.779 242.721 201.679 242.96 201.56C243.727 201.212 244.404 200.647 244.926 199.918C245.132 199.68 245.273 199.379 245.332 199.052C245.391 198.725 245.366 198.385 245.26 198.074L242.794 189.312C243.492 189.857 244.332 190.115 245.176 190.044C245.66 189.999 246.146 190.072 246.602 190.259C247.059 190.447 247.474 190.743 247.821 191.129C247.847 191.146 247.875 191.155 247.905 191.155C247.934 191.155 247.963 191.146 247.988 191.129C248.017 191.112 248.041 191.084 248.054 191.049C248.067 191.014 248.069 190.976 248.059 190.94L247.19 187.847C247.041 187.381 246.755 186.988 246.38 186.735Z" fill="#EC622D"/>
<path d="M575.77 106.223C575.031 105.121 573.971 104.357 572.78 104.066C572.104 103.912 571.467 103.588 570.915 103.119C570.363 102.65 569.909 102.047 569.587 101.354V100.825C569.587 100.778 569.579 100.731 569.562 100.688C569.546 100.645 569.522 100.607 569.492 100.575C569.461 100.543 569.426 100.518 569.387 100.503C569.348 100.488 569.307 100.482 569.265 100.485C569.178 100.481 569.092 100.513 569.024 100.575C568.956 100.638 568.911 100.726 568.896 100.825L567.609 121.617C567.244 121.227 566.809 120.931 566.335 120.749C565.089 120.273 563.759 120.152 562.463 120.396C559.46 120.871 557.161 122.784 557.34 124.669C557.483 126.297 559.413 127.382 561.867 127.382C562.266 127.376 562.664 127.34 563.058 127.273C564.379 127.096 565.645 126.567 566.752 125.727C567.178 125.457 567.534 125.064 567.785 124.588C568.035 124.112 568.172 123.569 568.181 123.014L569.087 108.447C569.821 109.59 570.897 110.386 572.113 110.685C572.823 110.849 573.491 111.198 574.061 111.707C574.632 112.216 575.091 112.869 575.401 113.615C575.422 113.661 575.455 113.698 575.496 113.722C575.536 113.747 575.582 113.756 575.627 113.75H575.687C575.744 113.74 575.796 113.709 575.837 113.663C575.877 113.617 575.904 113.557 575.913 113.493L576.223 108.352C576.304 107.603 576.143 106.846 575.77 106.223Z" fill="#EC622D"/>
<path d="M314.252 190.628C314.807 190.865 315.301 191.256 315.69 191.765C316.079 192.274 316.35 192.885 316.48 193.544C316.492 193.585 316.514 193.621 316.544 193.647C316.573 193.674 316.609 193.69 316.647 193.693C316.694 193.693 316.741 193.676 316.779 193.644C316.818 193.612 316.846 193.568 316.861 193.517L317.529 190.804C317.682 190.206 317.639 189.565 317.409 189C316.989 187.975 316.238 187.174 315.313 186.762C314.79 186.535 314.321 186.171 313.945 185.7C313.568 185.228 313.294 184.663 313.144 184.049L313.252 183.615C313.261 183.577 313.262 183.538 313.256 183.499C313.249 183.461 313.235 183.424 313.214 183.393C313.194 183.361 313.167 183.336 313.136 183.318C313.105 183.3 313.072 183.29 313.037 183.29C312.963 183.277 312.888 183.293 312.824 183.335C312.759 183.377 312.708 183.442 312.68 183.52L308.486 200.664C308.252 200.289 307.947 199.978 307.593 199.756C306.637 199.188 305.573 198.894 304.495 198.901C303.381 198.869 302.275 199.134 301.266 199.674C300.874 199.841 300.524 200.116 300.249 200.477C299.974 200.837 299.783 201.27 299.694 201.736C299.686 202.182 299.795 202.62 300.007 202.994C300.22 203.369 300.525 203.663 300.885 203.838C301.523 204.242 302.222 204.505 302.946 204.611C303.286 204.659 303.628 204.686 303.971 204.693C306.461 204.693 308.593 203.472 308.736 201.899L310.535 194.575C310.953 195.624 311.714 196.446 312.656 196.867C313.21 197.104 313.704 197.495 314.093 198.004C314.482 198.513 314.754 199.125 314.884 199.783C314.893 199.823 314.913 199.858 314.941 199.885C314.968 199.912 315.003 199.928 315.039 199.932H315.098C315.145 199.93 315.191 199.912 315.229 199.881C315.267 199.849 315.296 199.806 315.313 199.756L315.968 197.043C316.125 196.447 316.087 195.806 315.861 195.239C315.437 194.217 314.687 193.417 313.764 193.001C313.241 192.774 312.773 192.41 312.396 191.939C312.019 191.468 311.745 190.902 311.596 190.288L312.048 188.417C312.504 189.45 313.294 190.243 314.252 190.628Z" fill="#EC622D"/>
<path d="M291.317 164.233L290.364 153.681L290.019 149.748V149.517L278.844 151.267V151.484L279.189 155.417L280.059 165.074C279.513 164.747 278.915 164.55 278.301 164.494C277.687 164.438 277.069 164.525 276.485 164.749C274.555 165.346 273.22 166.797 273.518 168.004C273.816 169.211 275.174 169.564 276.783 169.36C277.052 169.317 277.319 169.253 277.581 169.17C279.511 168.587 280.833 167.163 280.559 165.956L279.749 156.896L290.042 155.241L290.769 163.379C290.487 163.166 290.172 163.019 289.84 162.945C288.978 162.751 288.088 162.793 287.243 163.067C285.301 163.664 283.966 165.115 284.276 166.322C284.586 167.529 285.92 167.868 287.541 167.678C287.823 167.622 288.101 167.545 288.375 167.448C290.257 166.865 291.579 165.427 291.317 164.233ZM279.737 156.394L279.642 155.349L289.911 153.749L290.007 154.807L279.737 156.394Z" fill="#EC622D"/>
<path d="M542.948 128.629L537.717 118.701L535.764 114.985L535.656 114.781L524.791 120.722L524.898 120.925L526.852 124.642L531.618 133.729C530.289 133.494 528.932 133.864 527.841 134.76C526.066 136.116 525.279 137.988 526.078 139.046C526.876 140.104 528.46 139.941 529.973 139.046C530.233 138.902 530.483 138.739 530.724 138.558C532.475 137.269 533.274 135.357 532.511 134.299L527.281 124.357L537.265 118.932L542.03 128.019C540.697 127.778 539.335 128.149 538.242 129.05C537.474 129.58 536.845 130.334 536.419 131.234C536.239 131.55 536.15 131.921 536.163 132.298C536.176 132.674 536.29 133.036 536.49 133.336C536.753 133.624 537.074 133.835 537.425 133.951C537.776 134.067 538.146 134.084 538.504 134.001C539.154 133.917 539.787 133.706 540.374 133.377C540.64 133.238 540.895 133.074 541.137 132.888C542.912 131.586 543.71 129.687 542.948 128.629Z" fill="#EC622D"/>
<path d="M442.104 109.865C436.278 113.093 435.468 123.184 436.695 132.529C437.922 141.875 425.972 142.593 423.721 137.629C425.663 147.124 436.349 153.783 443.271 151.911C437.922 154.285 428.284 152.671 428.284 152.671C433.881 155.821 439.908 157.867 446.107 158.72C454.768 159.629 474.163 154.543 476.856 145.265C477.094 148.093 476.764 150.946 475.891 153.607C478.502 151.924 480.562 149.321 481.761 146.19C482.96 143.059 483.233 139.569 482.539 136.246C486.208 141.359 486.113 143.136 486.113 143.136C486.113 143.136 488.734 125.273 482.3 114.463C487.233 120.241 487.983 122.167 487.983 122.167C487.983 122.167 488.662 101.524 471.459 99.8146C467.194 92.504 445.535 92.3277 436.85 112.415C438.407 111.119 440.204 110.247 442.104 109.865Z" fill="#263238"/>
<path d="M437.695 405.438L443.045 415.665L467.027 399.375L461.678 389.135L437.695 405.438Z" fill="#FFC3BD"/>
<path d="M449.217 412.545L443.475 400.799C443.378 400.595 443.219 400.439 443.029 400.359C442.838 400.279 442.628 400.281 442.438 400.365L433.622 404.203C433.404 404.31 433.208 404.467 433.046 404.665C432.885 404.864 432.762 405.098 432.686 405.354C432.609 405.61 432.581 405.881 432.603 406.15C432.625 406.419 432.696 406.68 432.812 406.916C434.873 410.985 436.052 412.803 438.578 417.97C440.139 421.144 443.165 428.428 445.321 432.822C447.478 437.217 451.385 435.019 450.837 432.971C448.371 423.802 448.824 418.689 449.515 414.647C449.635 413.928 449.53 413.184 449.217 412.545Z" fill="#263238"/>
<path opacity="0.2" d="M461.679 389.135L467.028 399.375L456.175 406.74L450.861 396.5L461.679 389.135Z" fill="black"/>
<path d="M499.885 229.941C499.885 229.941 550.269 328.235 537.616 344.308C515.445 372.479 464.716 404.543 464.716 404.543L454.494 392.336C454.494 392.336 496.8 346.898 512.681 328.588C506.331 306.588 469.911 282.662 466.896 235.543L499.885 229.941Z" fill="#EC622D"/>
<path d="M461.106 409.575L452.111 391.603L457.878 386.531L467.337 405.94L461.106 409.575Z" fill="#263238"/>
<path d="M452.742 419.937C452.608 419.963 452.471 419.963 452.337 419.937C451.027 419.801 449.68 417.468 449.001 416.099C448.979 416.06 448.967 416.016 448.967 415.97C448.967 415.924 448.979 415.879 449.001 415.841C449.026 415.803 449.059 415.775 449.096 415.758C449.134 415.741 449.176 415.737 449.216 415.746C449.633 415.868 453.29 416.939 453.707 418.364C453.75 418.519 453.757 418.684 453.728 418.843C453.699 419.002 453.634 419.15 453.541 419.272C453.349 419.592 453.068 419.826 452.742 419.937ZM449.609 416.397C450.61 418.282 451.622 419.435 452.373 419.503C452.541 419.512 452.708 419.472 452.858 419.387C453.008 419.301 453.137 419.173 453.231 419.015C453.283 418.956 453.32 418.881 453.336 418.8C453.353 418.718 453.35 418.633 453.326 418.553C453.076 417.685 450.872 416.804 449.609 416.397Z" fill="#EC622D"/>
<path d="M452.482 416.207C451.377 416.499 450.228 416.499 449.122 416.207C449.087 416.194 449.056 416.171 449.03 416.141C449.005 416.11 448.988 416.072 448.979 416.031C448.966 415.995 448.959 415.955 448.959 415.916C448.959 415.876 448.966 415.837 448.979 415.8C449.075 415.705 451.291 413.4 452.792 413.576C452.977 413.586 453.157 413.646 453.318 413.749C453.48 413.853 453.618 413.998 453.721 414.173C453.849 414.332 453.924 414.536 453.935 414.751C453.946 414.966 453.891 415.178 453.781 415.353C453.44 415.789 452.984 416.089 452.482 416.207ZM449.623 415.895C450.814 416.126 453.03 415.895 453.507 415.122C453.59 415 453.65 414.81 453.507 414.485C453.436 414.366 453.342 414.268 453.232 414.198C453.123 414.127 453.001 414.086 452.875 414.078C451.791 413.956 450.266 415.285 449.682 415.895H449.623Z" fill="#EC622D"/>
<path d="M507.499 170.805C509 176.149 510.727 181.751 512.598 187.081C513.527 189.794 514.54 192.371 515.6 194.88C516.631 197.344 517.797 199.731 519.091 202.028L519.865 203.384C519.95 203.545 520.059 203.687 520.187 203.805C520.582 204.144 521.062 204.329 521.557 204.334C523.567 204.337 525.557 203.875 527.407 202.977C531.986 200.785 536.354 198.057 540.44 194.839L544.014 199.397C540.224 204.157 535.802 208.212 530.909 211.414C528.075 213.306 524.903 214.446 521.628 214.75C519.472 214.901 517.322 214.375 515.409 213.231C514.392 212.603 513.468 211.798 512.669 210.844C512.467 210.614 512.3 210.383 512.109 210.139C511.919 209.895 511.859 209.786 511.74 209.596L511.049 208.593C509.296 205.992 507.73 203.234 506.367 200.346C504.985 197.552 503.782 194.717 502.674 191.856C501.566 188.994 500.529 186.105 499.612 183.189C498.694 180.272 497.825 177.383 497.074 174.237L507.499 170.805Z" fill="#FFC3BD"/>
<path d="M498.908 158.666C510.536 164.512 513.574 180.72 513.574 180.72L497.05 190.336C497.05 190.336 488.222 175.62 489.139 169.096C490.104 162.274 492.368 155.37 498.908 158.666Z" fill="#263238"/>
<path d="M538.235 196.494L544.68 188.723L548.564 200.482C548.564 200.482 543.06 204.104 537.615 201.038L538.235 196.494Z" fill="#FFC3BD"/>
<path d="M553.831 187.244L555.285 196.535L548.554 200.414L544.682 188.723L553.831 187.244Z" fill="#FFC3BD"/>
<path d="M474.093 484.214L484.553 483.847L483.671 452.068L473.211 452.421L474.093 484.214Z" fill="#FFC3BD"/>
<path d="M485.149 476.184H473.343C473.139 476.179 472.94 476.258 472.784 476.408C472.628 476.558 472.526 476.768 472.497 476.998L471.127 487.659C471.102 487.928 471.127 488.201 471.2 488.459C471.274 488.716 471.395 488.953 471.554 489.154C471.714 489.355 471.909 489.516 472.127 489.625C472.345 489.734 472.58 489.79 472.818 489.788C476.929 489.693 478.918 489.422 484.113 489.409C487.305 489.409 494.37 489.911 498.778 489.911C503.186 489.911 503.413 484.933 501.578 484.485C493.334 482.491 489.664 479.562 486.853 476.917C486.377 476.455 485.774 476.196 485.149 476.184Z" fill="#263238"/>
<path opacity="0.2" d="M473.211 452.421L483.671 452.068L484.064 466.432L473.616 466.771L473.211 452.421Z" fill="black"/>
<path d="M495.597 157.825C495.597 157.825 500.506 158.815 499.886 229.941L457.7 237.266C455.793 217.585 454.197 205.527 440.615 166.845C446.333 164.427 452.198 162.487 458.164 161.04C464.473 159.418 470.875 158.307 477.321 157.717C483.411 157.402 489.511 157.438 495.597 157.825Z" fill="#263238"/>
<path d="M456.828 136.151C458.973 142.933 461.903 155.614 458.21 161.04C463.656 164.506 469.475 167.15 475.521 168.906C481.478 161.284 477.367 157.717 477.367 157.717C470.219 157.038 469.647 151.206 470.112 145.51L456.828 136.151Z" fill="#FFC3BD"/>
<path opacity="0.2" d="M462.201 139.989L470.065 145.537C469.934 146.856 469.91 148.186 469.993 149.511C468.123 151.952 461.653 151.884 460.915 148.792C460.569 147.259 462.07 140.803 462.201 139.989Z" fill="black"/>
<path d="M472.746 117.501C475.129 129.057 476.38 133.886 472.901 141.441C467.659 152.807 454.661 153.648 449.276 143.15C444.427 133.655 441.306 116.389 449.86 108.509C451.745 106.782 453.984 105.629 456.367 105.156C458.75 104.683 461.199 104.906 463.486 105.805C465.773 106.703 467.822 108.248 469.441 110.293C471.061 112.339 472.198 114.819 472.746 117.501Z" fill="#FFC3BD"/>
<path d="M468.897 105.159C473.174 111.94 449.669 125.639 441.424 127.674C439.971 116.335 443.652 105.972 450.312 102.894C456.972 99.8147 465.99 100.588 468.897 105.159Z" fill="#263238"/>
<path d="M461.951 109.608C460.26 120.133 477.701 125.545 478.023 138.552C481.18 131.038 482.038 113.27 477.487 109.404C472.936 105.539 463.143 102.134 461.951 109.608Z" fill="#263238"/>
<path d="M478.274 125.137C478.276 127.434 477.479 129.638 476.058 131.268C474.164 133.411 471.912 131.824 471.352 129.016C470.852 126.48 471.245 122.316 473.664 121.231C474.199 121.006 474.775 120.937 475.34 121.03C475.905 121.123 476.44 121.375 476.898 121.763C477.356 122.151 477.721 122.662 477.962 123.252C478.202 123.841 478.309 124.489 478.274 125.137Z" fill="#FFC3BD"/>
<path d="M476.88 132.055C476.82 132.354 476.673 132.622 476.462 132.814C476.251 133.005 475.989 133.11 475.719 133.11C475.449 133.11 475.187 133.005 474.976 132.814C474.765 132.622 474.617 132.354 474.557 132.055C474.517 131.856 474.517 131.65 474.557 131.451C474.597 131.253 474.676 131.067 474.787 130.907C474.899 130.748 475.041 130.62 475.202 130.531C475.363 130.443 475.54 130.397 475.719 130.397C475.898 130.397 476.074 130.443 476.236 130.531C476.397 130.62 476.538 130.748 476.65 130.907C476.762 131.067 476.84 131.253 476.88 131.451C476.92 131.65 476.92 131.856 476.88 132.055Z" fill="#EC622D"/>
<path opacity="0.2" d="M507.259 268.597L479.715 268.149C480.906 273.019 482.157 278.254 483.372 283.734C487.244 289.864 491.366 295.466 495.286 300.674C497.073 281.862 510.309 278.064 507.259 268.597Z" fill="black"/>
<path opacity="0.2" d="M479.727 365.046C480.918 373.591 482.109 382.801 483.027 392.173L484.826 390.885C486.648 389.528 488.543 388.172 490.485 386.816C491.596 375.932 491.368 364.926 489.806 354.114L479.727 365.046Z" fill="black"/>
<path d="M490.701 231.678C490.701 231.678 488.163 304.472 488.175 351.307C488.175 389.135 486.555 458.742 486.555 458.742L471.877 461.061C471.877 461.061 461.453 386.381 462.477 360.692C465.015 297.636 447.061 261.07 457.712 237.266L490.701 231.678Z" fill="#EC622D"/>
<path d="M488.628 462.906L470.459 463.15L469.375 454.944H488.866L488.628 462.906Z" fill="#263238"/>
<path d="M456.688 234.553L455.365 239.178C455.258 239.544 455.651 239.829 456.14 239.734L500.387 232.057C500.769 231.99 501.055 231.718 501.043 231.447L500.852 227.08C500.852 226.781 500.471 226.578 500.054 226.659L457.331 234.078C457.198 234.09 457.069 234.139 456.956 234.222C456.844 234.305 456.751 234.419 456.688 234.553Z" fill="#EC622D"/>
<path opacity="0.3" d="M456.688 234.553L455.365 239.178C455.258 239.544 455.651 239.829 456.14 239.734L500.387 232.057C500.769 231.99 501.055 231.718 501.043 231.447L500.852 227.08C500.852 226.781 500.471 226.578 500.054 226.659L457.331 234.078C457.198 234.09 457.069 234.139 456.956 234.222C456.844 234.305 456.751 234.419 456.688 234.553Z" fill="black"/>
<path d="M463.157 239.002L461.965 239.192C461.739 239.192 461.548 239.192 461.537 238.961L461.334 233.292C461.334 233.115 461.501 232.953 461.727 232.912L462.918 232.708C463.157 232.708 463.347 232.776 463.347 232.939L463.562 238.622C463.574 238.785 463.383 238.961 463.157 239.002Z" fill="#EC622D"/>
<path d="M497.229 233.034L496.038 233.237C495.811 233.237 495.621 233.169 495.621 233.007L495.406 227.324C495.406 227.161 495.585 226.998 495.811 226.957L497.003 226.754C497.229 226.754 497.42 226.754 497.432 226.984L497.634 232.668C497.646 232.871 497.467 233.034 497.229 233.034Z" fill="#EC622D"/>
<path d="M480.192 236.032L479.001 236.235C478.774 236.235 478.584 236.167 478.584 236.005L478.369 230.322C478.369 230.159 478.536 229.996 478.774 229.955L479.966 229.752C480.192 229.752 480.383 229.752 480.383 229.983L480.597 235.666C480.657 235.828 480.418 236.005 480.192 236.032Z" fill="#EC622D"/>
<path d="M457.497 126.277C457.735 127.199 457.497 128.094 456.973 128.284C456.448 128.474 455.781 127.864 455.567 126.928C455.352 125.992 455.567 125.11 456.091 124.92C456.615 124.73 457.247 125.354 457.497 126.277Z" fill="#263238"/>
<path d="M448.323 129.437C448.573 130.359 448.323 131.254 447.811 131.444C447.298 131.634 446.619 131.024 446.405 130.088C446.19 129.152 446.405 128.27 446.917 128.08C447.429 127.891 448.073 128.515 448.323 129.437Z" fill="#263238"/>
<path d="M447.168 128.067H445.047C445.047 128.067 446.512 129.492 447.168 128.067Z" fill="#263238"/>
<path d="M452.148 129.803C452.003 132.169 451.574 134.501 450.873 136.734C451.375 136.925 451.908 136.99 452.435 136.925C452.961 136.859 453.469 136.664 453.923 136.354L452.148 129.803Z" fill="#ED847E"/>
<path d="M459.14 138.239C460.696 137.328 461.889 135.776 462.476 133.899C462.483 133.87 462.485 133.839 462.482 133.809C462.479 133.779 462.47 133.749 462.457 133.723C462.444 133.696 462.426 133.673 462.405 133.654C462.383 133.636 462.359 133.622 462.333 133.614C462.308 133.604 462.282 133.6 462.255 133.602C462.229 133.604 462.203 133.612 462.179 133.626C462.156 133.64 462.135 133.659 462.118 133.683C462.102 133.707 462.09 133.734 462.083 133.764C461.706 134.895 461.101 135.91 460.317 136.728C459.533 137.545 458.591 138.142 457.568 138.47C457.542 138.479 457.518 138.494 457.497 138.513C457.476 138.533 457.459 138.556 457.446 138.584C457.433 138.611 457.426 138.64 457.423 138.671C457.42 138.701 457.423 138.732 457.431 138.762C457.439 138.791 457.451 138.818 457.468 138.842C457.486 138.866 457.507 138.886 457.53 138.9C457.554 138.915 457.58 138.924 457.607 138.927C457.634 138.93 457.661 138.927 457.687 138.918C458.189 138.743 458.675 138.516 459.14 138.239Z" fill="#263238"/>
<path d="M460.964 120.024C461.033 119.984 461.091 119.923 461.131 119.848C461.188 119.74 461.205 119.611 461.178 119.488C461.151 119.366 461.083 119.261 460.988 119.197C460.328 118.729 459.58 118.445 458.806 118.37C458.031 118.295 457.252 118.429 456.532 118.763C456.435 118.818 456.361 118.914 456.326 119.031C456.29 119.147 456.296 119.275 456.342 119.387C456.39 119.5 456.476 119.587 456.581 119.63C456.685 119.673 456.8 119.669 456.901 119.617C457.494 119.344 458.136 119.238 458.772 119.306C459.409 119.375 460.022 119.616 460.559 120.01C460.621 120.049 460.69 120.071 460.76 120.073C460.831 120.076 460.9 120.059 460.964 120.024Z" fill="#263238"/>
<path d="M443.808 126.1C443.87 126.061 443.924 126.005 443.963 125.938C444.294 125.317 444.749 124.794 445.292 124.412C445.834 124.03 446.449 123.8 447.084 123.74C447.195 123.74 447.301 123.69 447.379 123.601C447.457 123.512 447.501 123.392 447.501 123.266C447.501 123.14 447.457 123.019 447.379 122.93C447.301 122.841 447.195 122.791 447.084 122.791C446.31 122.849 445.559 123.119 444.896 123.577C444.232 124.035 443.675 124.668 443.272 125.422C443.241 125.474 443.22 125.531 443.209 125.592C443.198 125.653 443.199 125.716 443.21 125.777C443.221 125.838 443.243 125.895 443.274 125.946C443.305 125.997 443.345 126.04 443.391 126.073C443.451 126.124 443.522 126.153 443.596 126.158C443.67 126.163 443.744 126.143 443.808 126.1Z" fill="#263238"/>
<path d="M508.059 271.839C510.703 270.447 513.151 268.619 515.326 266.413C527.705 253.935 525.346 235.136 514.028 221.424C503.139 208.226 488.163 203.954 476.166 215.998C473.981 218.197 472.094 220.752 470.566 223.58C468.926 226.688 466.725 229.364 464.108 231.431C461.492 233.498 458.52 234.909 455.388 235.57C448.065 237.073 441.34 241.153 436.16 247.235C423.924 261.53 427.522 279.488 438.221 295.303C450.933 314.129 469.959 321.304 485.316 305.828C490.234 300.891 493.851 294.495 495.764 287.355C496.733 283.926 498.33 280.77 500.449 278.095C502.569 275.421 505.162 273.288 508.059 271.839Z" fill="#EC622D"/>
<path opacity="0.7" d="M508.059 271.839C510.703 270.447 513.151 268.619 515.326 266.413C527.705 253.935 525.346 235.136 514.028 221.424C503.139 208.226 488.163 203.954 476.166 215.998C473.981 218.197 472.094 220.752 470.566 223.58C468.926 226.688 466.725 229.364 464.108 231.431C461.492 233.498 458.52 234.909 455.388 235.57C448.065 237.073 441.34 241.153 436.16 247.235C423.924 261.53 427.522 279.488 438.221 295.303C450.933 314.129 469.959 321.304 485.316 305.828C490.234 300.891 493.851 294.495 495.764 287.355C496.733 283.926 498.33 280.77 500.449 278.095C502.569 275.421 505.162 273.288 508.059 271.839Z" fill="white"/>
<path d="M494.19 259.93C492.517 261.615 490.443 262.698 488.229 263.041C486.016 263.384 483.762 262.971 481.755 261.856C479.747 260.741 478.075 258.974 476.949 256.776C475.824 254.579 475.297 252.052 475.433 249.513C475.57 246.975 476.365 244.54 477.717 242.515C479.07 240.491 480.919 238.969 483.031 238.142C485.144 237.314 487.424 237.218 489.584 237.866C491.744 238.514 493.687 239.877 495.167 241.782C497.151 244.337 498.163 247.683 497.979 251.086C497.796 254.49 496.433 257.671 494.19 259.93Z" fill="#263238"/>
<path d="M549.435 192.479L544.753 186.471C544.036 185.535 543.671 184.317 543.738 183.078C543.805 181.839 544.298 180.68 545.11 179.852L554.176 170.724C555.696 169.201 557.682 168.425 559.702 168.565C561.723 168.705 563.612 169.749 564.958 171.47C566.277 173.196 566.948 175.442 566.825 177.726C566.702 180.009 565.797 182.146 564.303 183.677L555.237 192.818C554.426 193.645 553.361 194.074 552.274 194.01C551.187 193.947 550.167 193.396 549.435 192.479Z" fill="#EC622D"/>
<path opacity="0.3" d="M471.733 277.983L460.749 263.864C460.595 263.666 460.478 263.436 460.402 263.187C460.327 262.937 460.296 262.673 460.31 262.41C460.324 262.147 460.384 261.889 460.486 261.652C460.588 261.415 460.73 261.204 460.904 261.029C461.254 260.678 461.712 260.498 462.178 260.529C462.644 260.559 463.081 260.797 463.394 261.192L474.366 275.325C474.52 275.522 474.639 275.751 474.715 276C474.791 276.249 474.824 276.513 474.81 276.776C474.797 277.039 474.738 277.297 474.638 277.534C474.537 277.772 474.396 277.984 474.223 278.16C474.049 278.334 473.847 278.468 473.628 278.554C473.409 278.64 473.177 278.675 472.946 278.659C472.715 278.643 472.489 278.574 472.28 278.458C472.072 278.343 471.886 278.181 471.733 277.983Z" fill="#EC622D"/>
<path d="M466.872 269.058C466.83 269.057 466.79 269.045 466.753 269.024C466.716 269.003 466.683 268.973 466.657 268.936C466.603 268.873 466.572 268.788 466.572 268.699C466.572 268.61 466.603 268.525 466.657 268.462L558.822 175.62C558.85 175.584 558.884 175.554 558.922 175.534C558.961 175.514 559.003 175.503 559.045 175.503C559.087 175.503 559.129 175.512 559.168 175.532C559.207 175.552 559.241 175.58 559.27 175.616C559.298 175.652 559.319 175.695 559.332 175.741C559.344 175.787 559.348 175.835 559.343 175.883C559.338 175.931 559.324 175.977 559.302 176.018C559.28 176.06 559.25 176.095 559.215 176.122L467.074 268.977C467.017 269.03 466.946 269.058 466.872 269.058Z" fill="white"/>
<path d="M465.516 267.295C465.473 267.297 465.431 267.289 465.392 267.27C465.353 267.251 465.318 267.223 465.289 267.187C465.261 267.156 465.238 267.119 465.223 267.079C465.207 267.038 465.199 266.994 465.199 266.949C465.199 266.905 465.207 266.861 465.223 266.82C465.238 266.779 465.261 266.742 465.289 266.712L547.637 183.745C547.664 183.712 547.696 183.687 547.732 183.669C547.768 183.651 547.807 183.642 547.846 183.642C547.885 183.642 547.923 183.651 547.959 183.669C547.995 183.687 548.027 183.712 548.054 183.745C548.109 183.808 548.139 183.893 548.139 183.982C548.139 184.071 548.109 184.156 548.054 184.22L465.718 267.214C465.661 267.266 465.59 267.295 465.516 267.295Z" fill="white"/>
<path d="M468.242 270.808C468.157 270.807 468.076 270.768 468.016 270.699C467.961 270.634 467.93 270.546 467.93 270.455C467.93 270.364 467.961 270.277 468.016 270.211L560.216 177.424C560.276 177.378 560.348 177.358 560.42 177.368C560.492 177.378 560.558 177.417 560.606 177.479C560.654 177.54 560.681 177.619 560.682 177.702C560.682 177.784 560.657 177.864 560.609 177.926L468.433 270.781C468.374 270.816 468.307 270.825 468.242 270.808Z" fill="white"/>
<path d="M469.6 272.557C469.559 272.56 469.518 272.551 469.481 272.532C469.444 272.513 469.411 272.485 469.385 272.449C469.355 272.42 469.331 272.383 469.314 272.342C469.298 272.301 469.289 272.257 469.289 272.212C469.289 272.166 469.298 272.122 469.314 272.081C469.331 272.04 469.355 272.003 469.385 271.974L551.733 189.007C551.789 188.945 551.863 188.91 551.941 188.91C552.019 188.91 552.094 188.945 552.15 189.007C552.179 189.039 552.202 189.077 552.217 189.119C552.233 189.161 552.241 189.206 552.241 189.251C552.241 189.297 552.233 189.342 552.217 189.384C552.202 189.426 552.179 189.464 552.15 189.495L469.802 272.449C469.748 272.511 469.676 272.55 469.6 272.557Z" fill="white"/>
<path d="M450.038 182.768C448.978 186.553 447.858 190.459 446.834 194.311C445.809 198.163 444.761 202.055 443.879 205.907C442.997 209.759 442.175 213.639 441.615 217.314C441.472 218.25 441.413 219.105 441.306 220.027C441.246 220.649 441.246 221.277 441.306 221.899C441.507 223.35 441.909 224.755 442.497 226.063C444.007 229.221 445.923 232.105 448.18 234.621C450.609 237.379 453.187 239.961 455.9 242.352C458.64 244.807 461.547 247.099 464.514 249.31C467.48 251.521 470.542 253.664 473.556 255.631L471.304 261.192C464.365 258.053 457.703 254.17 451.408 249.595C448.166 247.272 445.09 244.66 442.211 241.783C439.085 238.747 436.407 235.162 434.277 231.162C433.076 228.87 432.23 226.361 431.775 223.743C431.541 222.326 431.445 220.884 431.489 219.444C431.548 218.291 431.572 217.084 431.679 215.971C432.073 211.636 432.702 207.333 433.562 203.086C435.222 194.853 437.302 186.738 439.793 178.781L450.038 182.768Z" fill="#FFC3BD"/>
<path d="M470.329 255.156H479.717L475.631 264.65C475.631 264.65 469.519 263.646 467.768 259.103L470.329 255.156Z" fill="#FFC3BD"/>
<path d="M483.863 258.561L478.895 266.129L475.631 264.637L479.717 255.197L483.863 258.561Z" fill="#FFC3BD"/>
<path d="M440.615 166.845C435.766 169.259 432.18 187.76 432.18 187.76L451.242 198.909C451.242 198.909 455.257 181.968 453.124 174.603C451.266 168.351 446.786 163.766 440.615 166.845Z" fill="#263238"/>
<path d="M490.973 477.174C490.903 477.311 490.814 477.435 490.711 477.541C489.746 478.558 487.327 478.097 485.945 477.744C485.906 477.734 485.87 477.71 485.842 477.676C485.815 477.642 485.797 477.6 485.79 477.554C485.779 477.509 485.781 477.46 485.796 477.416C485.811 477.372 485.839 477.335 485.874 477.31C486.231 477.039 489.448 474.706 490.639 475.316C490.77 475.384 490.883 475.49 490.967 475.624C491.05 475.757 491.102 475.913 491.116 476.076C491.172 476.45 491.122 476.835 490.973 477.174ZM486.565 477.405C488.459 477.839 489.889 477.771 490.437 477.202C490.556 477.065 490.643 476.897 490.689 476.711C490.735 476.526 490.738 476.331 490.699 476.144C490.698 476.06 490.677 475.979 490.637 475.909C490.596 475.839 490.539 475.784 490.473 475.75C489.734 475.425 487.685 476.673 486.613 477.459L486.565 477.405Z" fill="#EC622D"/>
<path d="M488.376 474.937C487.823 476.063 487.053 477.032 486.124 477.771C486.093 477.792 486.059 477.802 486.023 477.802C485.987 477.802 485.952 477.792 485.922 477.771C485.891 477.75 485.865 477.72 485.846 477.684C485.828 477.649 485.817 477.609 485.814 477.568C485.814 477.419 485.814 473.987 486.946 472.861C487.082 472.716 487.244 472.607 487.421 472.541C487.598 472.475 487.786 472.455 487.971 472.482C488.16 472.484 488.343 472.561 488.489 472.699C488.634 472.838 488.733 473.029 488.769 473.241C488.807 473.84 488.668 474.437 488.376 474.937ZM486.243 477.107C487.208 476.252 488.531 474.231 488.364 473.323C488.364 473.173 488.269 472.997 487.923 472.956C487.799 472.934 487.673 472.945 487.553 472.987C487.433 473.029 487.323 473.102 487.232 473.2C486.458 473.987 486.279 476.157 486.243 477.175V477.107Z" fill="#EC622D"/>
<path d="M456.329 124.907H454.221C454.221 124.907 455.638 126.331 456.329 124.907Z" fill="#263238"/>
<path d="M438.982 236.845H178.357V485.489H438.982V236.845Z" fill="url(#paint0_linear_25_347)"/>
<path opacity="0.05" d="M315.949 239.327H275.954L216.934 485.489H256.94L315.949 239.327Z" fill="white"/>
<path opacity="0.05" d="M341.087 239.327H324.157L265.137 485.489H282.066L341.087 239.327Z" fill="white"/>
<path opacity="0.05" d="M423.708 239.327H406.767L347.746 485.489H364.687L423.708 239.327Z" fill="white"/>
<path d="M455.816 318.47H195.191V338.191H455.816V318.47Z" fill="url(#paint1_linear_25_347)"/>
<path opacity="0.1" d="M438.982 338.204H195.191V344.43H438.982V338.204Z" fill="black"/>
<path opacity="0.1" d="M201.339 318.47H195.191V338.204H209.941V325.577H201.339V318.47Z" fill="black"/>
<path opacity="0.8" d="M451.05 318.47H201.338V325.577H451.05V318.47Z" fill="white"/>
<path d="M246.051 224.286H218.947V225.642H246.051V224.286Z" fill="url(#paint2_linear_25_347)"/>
<path d="M208.724 224.286H201.576V225.642H208.724V224.286Z" fill="url(#paint3_linear_25_347)"/>
<path d="M444.593 236.845H172.746C171.836 236.845 170.963 236.434 170.319 235.701C169.676 234.969 169.314 233.975 169.314 232.939C169.314 231.903 169.676 230.909 170.319 230.177C170.963 229.444 171.836 229.033 172.746 229.033H444.593C445.503 229.033 446.376 229.444 447.019 230.177C447.662 230.909 448.024 231.903 448.024 232.939C448.024 233.975 447.662 234.969 447.019 235.701C446.376 236.434 445.503 236.845 444.593 236.845Z" fill="url(#paint4_linear_25_347)"/>
<path opacity="0.1" d="M195.192 236.845H178.357V485.489H195.192V236.845Z" fill="black"/>
<path opacity="0.1" d="M438.982 236.845H195.191V239.327H438.982V236.845Z" fill="black"/>
<path opacity="0.1" d="M438.982 465.903H195.191V468.385H438.982V465.903Z" fill="black"/>
<g opacity="0.1">
<path d="M289.846 247.845C300.241 245.851 310.855 245.851 321.25 247.845C322.172 266.96 323.081 286.067 323.979 305.164C313.584 303.17 302.969 303.17 292.574 305.164C291.676 286.012 290.767 266.906 289.846 247.845Z" fill="black"/>
<path d="M352.655 247.845C342.26 245.851 331.645 245.851 321.25 247.845C322.171 266.96 323.081 286.067 323.978 305.164C334.373 303.17 344.988 303.17 355.383 305.164C354.477 286.012 353.568 266.906 352.655 247.845Z" fill="black"/>
</g>
<path d="M289.846 247.75C300.249 245.878 310.847 245.878 321.25 247.75C322.767 265.735 324.276 283.72 325.777 301.705C315.375 299.82 304.776 299.82 294.373 301.705C292.872 283.72 291.363 265.735 289.846 247.75Z" fill="white"/>
<path d="M352.655 247.75C342.251 245.878 331.654 245.878 321.25 247.75C322.767 265.735 324.276 283.72 325.777 301.705C336.184 299.82 346.787 299.82 357.194 301.705L352.655 247.75Z" fill="white"/>
<path opacity="0.3" d="M286.975 483.21L272.416 481.854C271.773 481.812 271.169 481.493 270.726 480.961C270.283 480.429 270.035 479.725 270.033 478.992V477.785C270.034 477.39 270.106 476.999 270.246 476.638C270.385 476.276 270.589 475.952 270.844 475.684C271.099 475.417 271.4 475.212 271.728 475.083C272.056 474.955 272.404 474.905 272.75 474.937L287.177 476.293C288.368 476.401 289.262 477.92 289.262 479.765C289.322 481.745 288.249 483.332 286.975 483.21Z" fill="black"/>
<path opacity="0.3" d="M310.623 483.21L296.053 481.854C295.41 481.812 294.805 481.493 294.363 480.961C293.92 480.429 293.672 479.725 293.67 478.992V477.785C293.67 477.39 293.743 476.999 293.882 476.638C294.022 476.276 294.226 475.952 294.481 475.684C294.736 475.417 295.037 475.212 295.365 475.083C295.693 474.955 296.041 474.905 296.386 474.937L310.814 476.293C312.005 476.401 312.899 477.92 312.899 479.765C312.958 481.745 311.886 483.332 310.623 483.21Z" fill="black"/>
<path d="M417.727 238.744C419.753 241.768 421.456 244.657 423.196 247.709C424.935 250.761 426.544 253.799 428.08 256.973C431.257 263.348 433.917 270.04 436.027 276.965C437.101 280.587 437.898 284.309 438.41 288.087C438.553 289.05 438.636 290.054 438.731 291.044C438.815 292.213 438.815 293.388 438.731 294.557C438.569 296.949 438.041 299.29 437.171 301.474C435.543 305.409 433.042 308.794 429.915 311.294C428.511 312.457 427.016 313.47 425.448 314.319C423.896 315.18 422.281 315.888 420.622 316.435L418.359 310.236C422.755 306.764 426.961 301.854 427.89 297.392C428.147 296.338 428.244 295.241 428.176 294.15C428.141 293.586 428.077 293.024 427.985 292.468C427.866 291.736 427.783 291.017 427.628 290.271C427.035 287.222 426.238 284.23 425.245 281.319C423.104 275.228 420.555 269.333 417.62 263.687C416.143 260.802 414.61 257.949 413.022 255.128C411.449 252.348 409.721 249.486 408.125 246.922L417.727 238.744Z" fill="#FF8B7B"/>
<path d="M418.849 309.368L411.367 311.104L415.787 319.08C415.787 319.08 423.543 320.721 424.353 315.119L418.849 309.368Z" fill="#FF8B7B"/>
<path d="M403.359 315.974L407.219 320.273L415.785 319.08L411.365 311.104L403.359 315.974Z" fill="#FF8B7B"/>
<path d="M399.644 185.874C399.882 186.783 400.502 187.366 401.014 187.23C401.527 187.095 401.765 186.186 401.527 185.277C401.288 184.368 400.681 183.772 400.157 183.921C399.632 184.07 399.418 184.965 399.644 185.874Z" fill="#263238"/>
<path d="M400.43 187.393C402.102 189.843 404.063 192.02 406.255 193.863C405.243 195.829 402.681 195.965 402.681 195.965L400.43 187.393Z" fill="#FF5652"/>
<path d="M395.51 180.666C395.609 180.652 395.703 180.61 395.784 180.544C396.255 180.094 396.812 179.779 397.411 179.623C398.009 179.467 398.632 179.476 399.227 179.648C399.29 179.684 399.358 179.703 399.428 179.706C399.497 179.708 399.566 179.694 399.631 179.664C399.695 179.633 399.753 179.588 399.8 179.53C399.848 179.472 399.884 179.403 399.906 179.328C399.929 179.253 399.937 179.173 399.93 179.094C399.923 179.015 399.901 178.939 399.866 178.87C399.831 178.802 399.784 178.743 399.727 178.697C399.67 178.651 399.605 178.619 399.537 178.604C398.791 178.365 398.005 178.336 397.248 178.52C396.49 178.705 395.783 179.096 395.188 179.662C395.103 179.733 395.04 179.834 395.009 179.949C394.979 180.065 394.982 180.188 395.018 180.301C395.054 180.415 395.122 180.511 395.211 180.577C395.299 180.643 395.404 180.674 395.51 180.666Z" fill="#263238"/>
<path d="M394.878 196.752C393.401 205.324 391.924 221.03 397.202 226.754C397.202 226.754 395.14 235.448 381.142 235.448C365.749 235.448 373.791 226.754 373.791 226.754C382.19 224.475 381.964 217.382 380.51 210.722L394.878 196.752Z" fill="#FFC3BD"/>
<path d="M399.405 229.629C400.358 226.306 401.383 222.495 398.821 221.491C395.998 220.379 377.222 220.135 372.135 222.929C367.047 225.723 372.444 232.03 372.444 232.03L399.405 229.629Z" fill="#263238"/>
<path d="M361.007 250.788C359.518 255.345 357.921 259.753 356.325 264.216C354.729 268.678 353.001 273.059 351.274 277.467C349.546 281.875 347.699 286.256 345.781 290.596C343.83 295.117 341.638 299.497 339.217 303.712L338.895 304.255L338.669 304.526C336.381 307.047 333.692 309.05 330.746 310.426C328.163 311.667 325.488 312.643 322.752 313.342C320.131 314.007 317.477 314.497 314.806 314.807C312.158 315.114 309.497 315.25 306.835 315.214L306.275 308.527C308.563 307.836 311.041 307.171 313.316 306.276C315.592 305.381 317.939 304.567 320.131 303.563C322.263 302.629 324.329 301.513 326.314 300.226C327.991 299.172 329.494 297.796 330.758 296.157L330.198 296.971C332.155 293.057 333.937 289.033 335.535 284.913C337.219 280.673 338.871 276.382 340.492 272.042C342.1 267.702 343.649 263.321 345.257 258.953L349.927 245.837L361.007 250.788Z" fill="#FF8B7B"/>
<path d="M415.632 229.412C425.282 231.921 436.35 261.883 436.35 261.883L416.966 277.006C412.144 269.135 407.866 260.85 404.171 252.226C398.452 238.459 405.767 226.835 415.632 229.412Z" fill="#EC622D"/>
<path opacity="0.6" d="M415.632 229.412C425.282 231.921 436.35 261.883 436.35 261.883L416.966 277.006C412.144 269.135 407.866 260.85 404.171 252.226C398.452 238.459 405.767 226.835 415.632 229.412Z" fill="white"/>
<path opacity="0.2" d="M408.723 248.51L417.884 276.288L416.967 277.006C416.967 277.006 413.012 270.672 408.723 262.087V248.51Z" fill="black"/>
<path d="M357.946 230.009C357.946 230.009 348.2 245.485 358.553 332.711H413.619C414 323.081 407.483 274.755 415.632 229.412C409.546 228.058 403.39 227.152 397.202 226.7C389.404 226.191 381.588 226.191 373.791 226.7C368.442 227.336 363.145 228.442 357.946 230.009Z" fill="#EC622D"/>
<path opacity="0.6" d="M357.946 230.009C357.946 230.009 348.2 245.485 358.553 332.711H413.619C414 323.081 407.483 274.755 415.632 229.412C409.546 228.058 403.39 227.152 397.202 226.7C389.404 226.191 381.588 226.191 373.791 226.7C368.442 227.336 363.145 228.442 357.946 230.009Z" fill="white"/>
<path opacity="0.2" d="M364.057 255.237L353.787 265.952C353.787 272.15 354.002 279.352 354.466 287.653C368.25 276.328 363.902 255.481 364.057 255.237Z" fill="black"/>
<path d="M369.858 237.74C372.527 248.591 356.872 279.597 356.872 279.597L335.939 267.593C335.939 267.593 339.383 251.317 347.091 239.747C355.883 226.577 366.939 226.008 369.858 237.74Z" fill="#EC622D"/>
<path opacity="0.6" d="M369.858 237.74C372.527 248.591 356.872 279.597 356.872 279.597L335.939 267.593C335.939 267.593 339.383 251.317 347.091 239.747C355.883 226.577 366.939 226.008 369.858 237.74Z" fill="white"/>
<path d="M313.103 306.276L300.605 307.171L301.797 319.012C303.911 319.272 306.048 318.873 307.978 317.858C309.909 316.842 311.561 315.249 312.757 313.247L313.103 306.276Z" fill="#FF8B7B"/>
<path d="M294.518 313.682V319.243L301.833 318.985L300.605 307.144L294.518 313.682Z" fill="#FF8B7B"/>
<path d="M356.421 482.911H346.128L340.957 455.771H351.25L356.421 482.911Z" fill="#FF8B7B"/>
<path d="M345.4 478.53H356.956C357.161 478.531 357.36 478.61 357.52 478.755C357.68 478.9 357.792 479.103 357.838 479.331L359.875 489.761C359.922 490.014 359.918 490.277 359.863 490.529C359.808 490.78 359.704 491.014 359.559 491.214C359.413 491.413 359.23 491.573 359.023 491.681C358.816 491.788 358.59 491.841 358.362 491.836C354.324 491.755 352.405 491.497 347.283 491.497C344.149 491.497 340.134 491.863 335.81 491.863C331.485 491.863 330.925 486.994 332.688 486.56C340.623 484.58 341.183 481.853 343.72 479.249C344.186 478.787 344.782 478.531 345.4 478.53Z" fill="#263238"/>
<g opacity="0.2">
<path d="M351.25 455.771H340.957L343.828 470.813L353.931 469.768L351.25 455.771Z" fill="black"/>
</g>
<path d="M372.599 192.913C376.102 203.845 377.662 210.451 384.096 214.492C393.758 220.582 404.504 211.4 403.944 199.505C403.432 188.79 397.796 172.717 387.062 171.524C384.699 171.248 382.314 171.664 380.132 172.733C377.95 173.801 376.044 175.487 374.595 177.63C373.146 179.773 372.202 182.301 371.853 184.976C371.503 187.651 371.76 190.383 372.599 192.913Z" fill="#FFC3BD"/>
<path d="M391.494 211.753C395.068 207.426 395.723 197.688 394.532 191.679C395.723 186.254 401.549 175.403 396.783 169.978C392.018 164.552 384.393 162.002 375.339 162.979C375.112 164.566 377.721 166.085 377.721 166.085C377.721 166.085 356.515 162.436 362.52 177.614C353.858 193.673 369.668 200.956 364.604 207.155C365.486 210.179 371.479 214.615 377.638 209.65C378.115 210.759 378.274 212.01 378.092 213.227C377.911 214.444 377.397 215.565 376.625 216.432C382.296 216.364 387.908 216.066 391.494 211.753Z" fill="#263238"/>
<path d="M364.354 177.302C364.354 177.302 359.589 176.502 358.23 181.493C360.026 179.677 362.103 178.256 364.354 177.302Z" fill="#263238"/>
<path d="M363.641 177.912C363.641 177.912 359.722 179.201 358.947 173.667C360.189 175.492 361.799 176.948 363.641 177.912Z" fill="#263238"/>
<path d="M389.352 191.543C390.486 194.13 392.342 196.214 394.629 197.471C397.644 199.098 399.228 196.467 398.442 193.117C397.739 190.106 395.32 185.643 392.258 185.399C389.197 185.155 388.005 188.41 389.352 191.543Z" fill="#FFC3BD"/>
<path d="M375.055 332.711C375.055 332.711 327.245 352.391 325.78 378.569C323.183 426.678 340.434 463.814 340.434 463.814H355.922C355.922 463.814 353.539 447.348 351.442 403.769C348.797 349.001 430.442 405.044 413.62 332.711H375.055Z" fill="#EC622D"/>
<path opacity="0.5" d="M375.055 332.711C375.055 332.711 327.245 352.391 325.78 378.569C323.183 426.678 340.434 463.814 340.434 463.814H355.922C355.922 463.814 353.539 447.348 351.442 403.769C348.797 349.001 430.442 405.044 413.62 332.711H375.055Z" fill="black"/>
<path d="M337.263 459.406C337.192 459.406 339.646 467.422 339.646 467.422L357.517 465.429L356.552 458.145L337.263 459.406Z" fill="white"/>
<path d="M311.386 478.449H301.092L298.078 451.309H308.372L311.386 478.449Z" fill="#FF8B7B"/>
<path d="M300.593 469.89L311.423 473.336C311.62 473.395 311.793 473.53 311.912 473.718C312.032 473.906 312.09 474.135 312.078 474.366L311.578 485.027C311.567 485.285 311.505 485.537 311.396 485.764C311.288 485.991 311.136 486.186 310.951 486.336C310.766 486.487 310.554 486.587 310.331 486.631C310.107 486.674 309.878 486.659 309.66 486.587C305.764 485.231 300.188 483.223 295.28 481.663C289.537 479.832 288.346 479.846 281.615 477.703C277.54 476.414 277.564 471.369 279.363 471.477C287.595 472.02 290.085 472.59 297.984 470.013C298.828 469.702 299.73 469.659 300.593 469.89Z" fill="#263238"/>
<path opacity="0.2" d="M298.078 451.309L299.722 466.093L309.932 465.306L308.383 451.309H298.078Z" fill="black"/>
<path d="M358.553 332.711C358.553 332.711 280.196 340.618 281.042 385.418C281.924 432.008 296.137 459.352 296.137 459.352H311.481C311.481 459.352 309.647 439.265 310.159 393.393C310.314 379.654 334.701 375.11 358.529 373.51C379.104 372.153 398.368 358.766 406.362 337.133L407.994 332.711H358.553Z" fill="#EC622D"/>
<path opacity="0.5" d="M358.553 332.711C358.553 332.711 280.196 340.618 281.042 385.418C281.924 432.008 296.137 459.352 296.137 459.352H311.481C311.481 459.352 309.647 439.265 310.159 393.393C310.314 379.654 334.701 375.11 358.529 373.51C379.104 372.153 398.368 358.766 406.362 337.133L407.994 332.711H358.553Z" fill="black"/>
<path d="M292.562 454.673C292.49 454.673 295.183 462.716 295.183 462.716L313.649 461.224L312.577 453.927L292.562 454.673Z" fill="white"/>
<path d="M422.557 379.077H322.184V390.077H422.557V379.077Z" fill="#EC622D"/>
<path opacity="0.6" d="M422.557 379.077H322.184V390.077H422.557V379.077Z" fill="white"/>
<path opacity="0.4" d="M345.725 379.077H322.184V390.077H345.725V379.077Z" fill="#EC622D"/>
<path d="M350.956 500.198H340.484L339.174 390.077H352.267L350.956 500.198Z" fill="#EC622D"/>
<path opacity="0.6" d="M350.956 500.198H340.484L339.174 390.077H352.267L350.956 500.198Z" fill="white"/>
<path opacity="0.4" d="M345.726 500.198H340.484L339.174 390.077H345.726V500.198Z" fill="#EC622D"/>
<path d="M333.966 500.198H323.494L322.184 390.077H335.277L333.966 500.198Z" fill="#EC622D"/>
<path opacity="0.6" d="M333.966 500.198H323.494L322.184 390.077H335.277L333.966 500.198Z" fill="white"/>
<path opacity="0.4" d="M328.724 500.198H323.494L322.184 390.077H328.724V500.198Z" fill="#EC622D"/>
<path d="M421.247 500.198H410.775L409.465 390.077H422.558L421.247 500.198Z" fill="#EC622D"/>
<path opacity="0.6" d="M421.247 500.198H410.775L409.465 390.077H422.558L421.247 500.198Z" fill="white"/>
<path opacity="0.4" d="M416.005 500.198H410.775L409.465 390.077H416.005V500.198Z" fill="#EC622D"/>
<path d="M404.257 500.198H393.785L392.475 390.077H405.568L404.257 500.198Z" fill="#EC622D"/>
<path opacity="0.6" d="M404.257 500.198H393.785L392.475 390.077H405.568L404.257 500.198Z" fill="white"/>
<path opacity="0.4" d="M399.015 500.198H393.785L392.475 390.077H399.015V500.198Z" fill="#EC622D"/>
<path d="M422.367 370.057C405.199 367.887 339.543 367.887 322.375 370.057C321.986 370.107 321.612 370.259 321.284 370.501C320.955 370.744 320.681 371.071 320.483 371.455C320.285 371.84 320.169 372.272 320.144 372.717C320.119 373.162 320.185 373.607 320.338 374.018L321.422 377.015C321.652 377.612 322.028 378.12 322.506 378.479C322.984 378.837 323.542 379.031 324.114 379.036H420.616C421.197 379.038 421.766 378.843 422.249 378.476C422.733 378.109 423.11 377.586 423.332 376.975L424.428 373.977C424.574 373.567 424.634 373.123 424.604 372.682C424.574 372.24 424.455 371.813 424.255 371.433C424.055 371.053 423.781 370.731 423.453 370.492C423.125 370.254 422.754 370.105 422.367 370.057Z" fill="#263238"/>
<path d="M128.68 492.818C128.68 494.838 111.84 496.475 91.0677 496.475C70.295 496.475 53.4551 494.838 53.4551 492.818C53.4551 490.798 70.2947 489.16 91.0677 489.16C111.841 489.16 128.68 490.798 128.68 492.818Z" fill="#4B4B4B" fill-opacity="0.21"/>
<path d="M57.5508 347.865C60.1692 357.925 56.5161 369.376 60.0032 379.067C61.2901 382.644 63.4614 385.677 65.0463 389.085C66.7322 392.71 67.7358 396.717 69.3025 400.414C72.7755 408.609 78.8021 414.848 84.6812 420.867C85.5617 412.586 86.4322 404.08 84.7149 395.98C83.8622 391.958 81.1894 388.14 79.7282 384.366C78.3796 380.883 78.2275 377.403 76.4444 374.2C74.9415 371.5 73.1514 369.039 71.3667 366.587C66.88 360.421 62.3933 354.256 57.9066 348.09" fill="#263238"/>
<g opacity="0.1">
<path d="M57.889 348.1C62.3757 354.265 66.8625 360.43 71.3492 366.596C73.1338 369.048 74.924 371.509 76.4269 374.209C78.2099 377.413 78.3621 380.893 79.7107 384.376C81.1719 388.149 83.8446 391.968 84.6973 395.989C86.4143 404.089 85.5438 412.595 84.6637 420.877C78.7846 414.858 72.7579 408.618 69.285 400.424C67.7179 396.726 66.7143 392.719 65.0288 389.094C63.4438 385.686 61.2725 382.653 59.9856 379.077C56.4985 369.386 60.1517 357.935 57.5332 347.875" fill="white"/>
</g>
<path d="M93.2505 464.111C93.0953 464.111 92.9617 463.975 92.9441 463.789C91.448 448.044 82.5079 408.715 76.4594 394.254L66.0071 369.233L60.772 356.77C60.6968 356.59 60.7597 356.374 60.9125 356.285C61.0661 356.197 61.2504 356.271 61.3257 356.45L66.5611 368.914L77.0136 393.935C83.2075 408.743 92.0229 447.556 93.5579 463.709C93.5767 463.908 93.4545 464.087 93.2851 464.109C93.2737 464.11 93.2623 464.111 93.2508 464.111L93.2505 464.111Z" fill="#263238"/>
<path d="M72.3398 383.702C72.3012 383.702 72.2642 383.679 72.2426 383.639C70.4049 380.289 59.4431 374.152 58.9426 374.054C58.8793 374.042 58.837 373.972 58.8472 373.898C58.8577 373.824 58.9188 373.774 58.9805 373.786C59.4709 373.882 69.8941 379.716 72.2367 383.167L72.6863 368.972C72.6885 368.897 72.7453 368.838 72.8061 368.841C72.87 368.844 72.9199 368.907 72.9175 368.982L72.4555 383.571C72.4537 383.63 72.4191 383.681 72.3706 383.697C72.3605 383.7 72.3503 383.701 72.3401 383.701L72.3398 383.702Z" fill="#263238"/>
<path d="M67.4179 372.124C67.3793 372.124 67.3423 372.101 67.3207 372.062C65.4465 368.644 59.2415 363.291 58.757 363.196C58.6938 363.184 58.6515 363.113 58.6617 363.04C58.6722 362.965 58.7336 362.916 58.795 362.928C59.4029 363.047 65.2858 368.245 67.3154 371.57L67.6212 361.923C67.6234 361.848 67.6808 361.784 67.741 361.793C67.8048 361.795 67.8548 361.859 67.8524 361.933L67.5336 371.994C67.5317 372.053 67.4972 372.103 67.4487 372.119C67.4385 372.123 67.4284 372.124 67.4182 372.124L67.4179 372.124Z" fill="#263238"/>
<path d="M75.7446 392.587C75.706 392.587 75.6687 392.564 75.6474 392.524C73.8257 389.203 62.644 383.794 62.1672 383.7C62.1039 383.688 62.0616 383.618 62.0718 383.544C62.0823 383.47 62.1431 383.42 62.2051 383.432C62.6733 383.524 73.3539 388.697 75.6604 392.082L77.0231 376.258C77.0296 376.183 77.0889 376.13 77.15 376.137C77.2135 376.144 77.2598 376.211 77.2533 376.285L75.86 392.465C75.8551 392.522 75.8199 392.569 75.7718 392.583C75.7628 392.585 75.7535 392.587 75.7449 392.587H75.7446Z" fill="#263238"/>
<path d="M79.1495 401.471C79.1106 401.471 79.0736 401.448 79.0523 401.408C77.2735 398.165 67.886 394.049 67.2277 393.92C67.1645 393.908 67.1222 393.838 67.1324 393.764C67.1429 393.69 67.203 393.64 67.2657 393.652C67.9344 393.783 76.8896 397.659 79.0813 400.987L80.8693 388.281C80.8798 388.207 80.94 388.158 81.0023 388.169C81.0656 388.181 81.1082 388.251 81.0977 388.325L79.2637 401.357C79.256 401.412 79.2199 401.456 79.173 401.467C79.1652 401.469 79.1572 401.471 79.1495 401.471Z" fill="#263238"/>
<path d="M82.205 410.876C82.1661 410.876 82.1291 410.853 82.1078 410.814C80.3034 407.523 71.8919 404.488 71.4074 404.394C71.3442 404.381 71.3019 404.311 71.3121 404.237C71.3226 404.163 71.3833 404.113 71.4454 404.126C71.9444 404.223 80.0217 407.094 82.1565 410.422L84.8352 398.46C84.8518 398.387 84.9154 398.344 84.9765 398.363C85.0382 398.382 85.0753 398.456 85.0592 398.528L82.317 410.774C82.3053 410.826 82.2686 410.865 82.2232 410.874C82.217 410.875 82.2112 410.875 82.205 410.875V410.876Z" fill="#263238"/>
<path d="M91.9723 455.749C91.8315 455.749 91.7044 455.636 91.6717 455.468C90.5123 449.511 88.0154 441.915 85.1556 435.643C85.0754 435.467 85.1319 435.247 85.2824 435.153C85.4324 435.059 85.6197 435.126 85.7 435.302C88.5838 441.626 91.1023 449.292 92.2731 455.307C92.3111 455.502 92.2071 455.695 92.0411 455.74C92.0179 455.746 91.9948 455.749 91.9719 455.749L91.9723 455.749Z" fill="#263238"/>
<path opacity="0.3" d="M91.6684 455.468C90.509 449.512 88.0121 441.915 85.1523 435.643L85.6967 435.302C88.5806 441.627 91.099 449.293 92.2699 455.307L91.6684 455.468Z" fill="white"/>
<path d="M95.5688 461.134C95.5459 461.134 95.5231 461.131 95.4997 461.125C95.3336 461.081 95.2296 460.887 95.2676 460.692C96.5267 454.222 101.38 434.432 104.015 428.653C104.095 428.477 104.281 428.411 104.432 428.505C104.582 428.599 104.639 428.818 104.559 428.995C101.948 434.721 97.1232 454.411 95.8694 460.853C95.8369 461.02 95.7095 461.134 95.5688 461.134V461.134Z" fill="#263238"/>
<path opacity="0.3" d="M95.8671 460.853L95.2656 460.692C96.5247 454.222 101.378 434.432 104.013 428.653L104.557 428.994C101.946 434.721 97.1212 454.411 95.8674 460.853H95.8671Z" fill="white"/>
<path d="M96.6517 411.348C94.5319 400.736 92.4295 389.473 95.3405 379.121C96.7489 374.112 99.6041 372.145 101.805 367.546C105.094 360.674 109.249 351.918 113.925 346.142C114.348 345.619 114.981 345.065 115.512 345.426C116.105 345.83 115.896 346.865 115.708 347.638C115.028 350.432 115.712 353.394 116.039 356.275C116.815 363.118 116.191 371.587 114.926 378.329C113.681 384.958 112.514 391.279 108.365 396.014C103.062 402.067 103.086 408.035 97.9268 411.116" fill="#263238"/>
<g opacity="0.1">
<path d="M96.6517 411.348C94.5319 400.736 92.4295 389.473 95.3405 379.121C96.7489 374.112 99.6041 372.145 101.805 367.546C105.094 360.674 109.249 351.918 113.925 346.142C114.348 345.619 114.981 345.065 115.512 345.426C116.105 345.83 115.896 346.865 115.708 347.638C115.028 350.432 115.712 353.394 116.039 356.275C116.815 363.118 116.191 371.587 114.926 378.329C113.681 384.958 112.514 391.279 108.365 396.014C103.062 402.067 103.086 408.035 97.9268 411.116" fill="white"/>
</g>
<path d="M93.9766 459.563H93.9747C93.8041 459.561 93.667 459.398 93.668 459.199C93.8528 424.447 101.827 380.976 113.984 348.452L115.036 345.706C115.106 345.524 115.288 345.442 115.444 345.525C115.599 345.607 115.669 345.821 115.599 346.003L114.548 348.746C102.424 381.184 94.4694 424.542 94.2852 459.203C94.2839 459.402 94.1463 459.563 93.9766 459.563Z" fill="#263238"/>
<path d="M104.529 380.515C104.519 380.515 104.508 380.513 104.498 380.509C104.453 380.495 104.421 380.451 104.414 380.398L102.663 366.097C102.654 366.023 102.698 365.954 102.761 365.943C102.825 365.93 102.883 365.984 102.892 366.058L104.607 380.062C106.868 377.056 115.713 368.646 115.804 368.559C115.853 368.512 115.927 368.521 115.967 368.579C116.007 368.638 116 368.723 115.95 368.77C115.856 368.859 106.551 377.707 104.618 380.465C104.596 380.497 104.562 380.515 104.528 380.515H104.529Z" fill="#263238"/>
<path d="M102.154 390.693H102.149C102.098 390.69 102.054 390.649 102.041 390.591L98.2713 373.355C98.2553 373.282 98.2926 373.208 98.3549 373.19C98.417 373.17 98.4796 373.215 98.4957 373.287L102.18 390.131C103.1 387.857 106.162 385.051 108.641 383.048C111.333 380.873 114.223 378.946 114.424 378.946H114.426C114.49 378.953 114.537 379.018 114.532 379.093C114.526 379.158 114.484 379.208 114.43 379.216C113.939 379.399 103.541 386.383 102.263 390.603C102.246 390.657 102.203 390.693 102.154 390.693Z" fill="#263238"/>
<path d="M100.035 399.971C100.023 399.971 100.012 399.969 100 399.965C99.9675 399.953 99.9412 399.924 99.9283 399.887L94.5068 384.426C94.4824 384.357 94.5108 384.277 94.5697 384.249C94.6287 384.22 94.6966 384.254 94.7206 384.323L100.089 399.633C102.53 397.759 111.923 388.986 112.019 388.896C112.069 388.85 112.142 388.859 112.181 388.918C112.221 388.977 112.213 389.062 112.163 389.109C112.065 389.2 102.348 398.276 100.097 399.95C100.078 399.964 100.056 399.971 100.035 399.971H100.035Z" fill="#263238"/>
<path d="M98.8415 407.666C98.8362 407.666 98.8313 407.666 98.826 407.665C98.7902 407.659 98.7585 407.634 98.7409 407.597L94.5112 398.805C94.4794 398.74 94.4995 398.657 94.555 398.62C94.6106 398.583 94.6813 398.607 94.7127 398.672L98.8674 407.307C100.826 404.986 104.826 400.213 104.826 400.213L104.991 400.403C104.991 400.403 100.84 405.357 98.9242 407.625C98.9023 407.651 98.8726 407.665 98.8418 407.665L98.8415 407.666Z" fill="#263238"/>
<path d="M108.335 366.459C108.323 366.459 108.311 366.457 108.299 366.452C108.255 366.435 108.225 366.39 108.22 366.337L107.43 356.714C107.424 356.639 107.471 356.573 107.534 356.566C107.602 356.557 107.655 356.614 107.661 356.688L108.426 366.008L115.793 356.609C115.837 356.555 115.909 356.551 115.957 356.601C116.003 356.652 116.007 356.738 115.963 356.793L108.42 366.416C108.398 366.444 108.367 366.459 108.335 366.459H108.335Z" fill="#263238"/>
<path d="M50.6973 398.146C54.8442 403.888 55.2062 412.621 59.8349 417.831C61.543 419.754 63.701 421.027 65.5643 422.741C67.5462 424.564 69.1722 426.863 71.0935 428.773C75.3516 433.005 80.8159 435.107 86.13 437.112C84.7107 431.38 83.2307 425.503 80.1487 420.752C78.6184 418.392 75.9416 416.77 74.0715 414.775C72.3452 412.934 71.4061 410.698 69.4619 409.185C67.8236 407.909 66.0538 406.886 64.2898 405.866L50.9858 398.177" fill="#263238"/>
<g opacity="0.3">
<path d="M50.6973 398.146C54.8442 403.888 55.2062 412.621 59.8349 417.831C61.543 419.754 63.701 421.027 65.5643 422.741C67.5462 424.564 69.1722 426.863 71.0935 428.773C75.3516 433.005 80.8159 435.107 86.13 437.112C84.7107 431.38 83.2307 425.503 80.1487 420.752C78.6184 418.392 75.9416 416.77 74.0715 414.775C72.3452 412.934 71.4061 410.698 69.4619 409.185C67.8236 407.909 66.0538 406.886 64.2898 405.866L50.9858 398.177" fill="white"/>
</g>
<path d="M103.298 431.307C107.544 429.978 111.197 426.263 112.918 421.522C114.292 417.738 114.509 413.353 116.527 409.989C118.506 406.689 121.847 404.979 124.572 402.517C130.167 397.466 133.028 389.404 135.651 381.718C128.276 389.574 118.039 393.713 112.212 403.188C107.236 411.278 106.393 421.794 103.205 431.04" fill="#263238"/>
<g opacity="0.3">
<path d="M103.298 431.307C107.544 429.978 111.197 426.263 112.918 421.522C114.292 417.738 114.509 413.353 116.527 409.989C118.506 406.689 121.847 404.979 124.572 402.517C130.167 397.466 133.028 389.404 135.651 381.718C128.276 389.574 118.039 393.713 112.212 403.188C107.236 411.278 106.393 421.794 103.205 431.04" fill="white"/>
</g>
<path d="M80.1445 371.293C78.8573 368.286 76.5641 366.079 74.657 363.564C72.7498 361.049 71.1266 357.786 71.6651 354.481C77.4973 359.965 78.2827 365.367 80.1445 371.293Z" fill="#EC622D"/>
<path d="M91.5223 375.612C92.5743 374.528 93.0094 372.825 93.1165 371.187C93.2236 369.55 93.0536 367.902 93.1341 366.263C93.3409 362.04 95.1721 358.194 96.9586 354.52C94.1225 356.632 92.3336 360.313 91.5442 364.142C90.7551 367.97 90.8662 371.972 91.1393 375.897" fill="#263238"/>
<path d="M80.9602 368.009L81.9696 366.265C82.4384 359.645 83.5209 353.084 85.192 346.736C81.3684 352.683 80.4423 360.587 80.9599 368.009L80.9602 368.009Z" fill="#263238"/>
<path d="M88.9868 380.13C89.566 375.608 87.7372 369.641 87.752 365.069C87.7665 360.496 89.7354 357.009 92.3054 353.569C90.9562 357.011 91.4957 361.001 91.77 364.776C91.9724 367.559 92.0138 370.377 91.6247 373.133C91.2355 375.89 90.3995 378.593 88.9719 380.831" fill="#EC622D"/>
<path d="M90.082 379.196C90.6915 376.939 92.1879 375.174 93.7343 373.651C95.2807 372.128 96.9542 370.72 98.1337 368.798C100.192 365.443 100.474 360.987 102.284 357.44C99.0135 359.467 96.449 362.823 94.5527 366.546C92.6564 370.27 91.3781 374.374 90.1795 378.476" fill="#EC622D"/>
<g opacity="0.3">
<path d="M90.082 379.196C90.6915 376.939 92.1879 375.174 93.7343 373.651C95.2807 372.128 96.9542 370.72 98.1337 368.798C100.192 365.443 100.474 360.987 102.284 357.44C99.0135 359.467 96.449 362.823 94.5527 366.546C92.6564 370.27 91.3781 374.374 90.1795 378.476" fill="white"/>
</g>
<path d="M79.9085 371.747C80.3967 367.982 78.5605 364.412 77.672 360.749C76.841 357.323 76.8438 353.624 77.6801 350.2C78.0911 354.112 80.1961 356.631 80.9842 360.463C81.7724 364.295 81.208 369.692 79.7187 373.226" fill="#EC622D"/>
<path d="M79.8898 373.321C80.5669 370.228 83.1381 368.34 84.9481 365.953C86.6642 363.69 87.7464 360.845 88.4164 357.921C89.0864 354.996 89.3663 351.971 89.6437 348.96C85.4835 356.29 81.2288 363.887 79.875 372.546" fill="#EC622D"/>
<g opacity="0.3">
<path d="M79.8898 373.321C80.5669 370.228 83.1381 368.34 84.9481 365.953C86.6642 363.69 87.7464 360.845 88.4164 357.921C89.0864 354.996 89.3663 351.971 89.6437 348.96C85.4835 356.29 81.2288 363.887 79.875 372.546" fill="white"/>
</g>
<path d="M72.2435 365.622C73.9436 366.974 74.8027 368.452 76.4368 369.912C77.182 370.578 78.0165 371.092 78.8463 371.602C80.7738 372.789 82.7019 373.975 84.677 375.048C86.3922 375.98 88.1759 376.852 89.5791 378.337C92.0729 380.977 92.9619 385.498 91.7053 389.15C91.485 387.391 90.4373 385.911 89.2285 384.836C88.0197 383.762 86.631 383.004 85.3522 382.048C83.1334 380.389 81.2753 378.156 79.4771 375.904C76.6722 372.39 73.9587 368.776 71.3418 365.069L72.2435 365.622Z" fill="#263238"/>
<path d="M89.8848 385.479C89.8848 385.479 90.5442 387.567 90.2403 390.404C89.9906 392.737 90.6365 406.468 90.6365 406.468L91.6635 406.499C91.6635 406.499 90.8624 394.82 91.5277 392.612C92.1931 390.403 92.3952 385.407 92.4906 381.073C92.4906 381.073 91.9067 384.708 91.5219 385.083C90.8112 385.774 89.8848 385.479 89.8848 385.479Z" fill="#263238"/>
<path d="M94.4779 465.716C94.2437 465.716 94.0428 465.508 94.0181 465.229C92.1017 443.505 91.1904 421.367 90.4868 402.321C90.4757 402.022 90.6738 401.768 90.9293 401.756C91.183 401.74 91.4005 401.975 91.4116 402.274C92.1146 421.304 93.025 443.424 94.9389 465.117C94.9652 465.415 94.7803 465.682 94.526 465.713C94.5097 465.715 94.4939 465.716 94.4779 465.716Z" fill="#263238"/>
<path d="M94.2167 465.798C94.1791 465.798 94.1405 465.79 94.1035 465.772C93.9449 465.699 93.8671 465.489 93.93 465.303C96.609 457.35 101.306 450.157 107.157 445.051C107.294 444.93 107.487 444.964 107.589 445.124C107.691 445.285 107.662 445.511 107.526 445.63C101.766 450.658 97.1413 457.739 94.5037 465.569C94.4559 465.711 94.3399 465.798 94.2167 465.798Z" fill="#263238"/>
<path d="M94.0773 473.093C93.9699 473.093 93.8656 473.027 93.8088 472.91C89.5288 464.099 85.2159 456.802 81.1926 450.229C81.0933 450.066 81.1251 449.84 81.2633 449.724C81.4022 449.606 81.5948 449.644 81.6941 449.806C85.7269 456.396 90.051 463.712 94.3451 472.552C94.4294 472.725 94.3775 472.946 94.2297 473.045C94.1816 473.077 94.1291 473.093 94.0773 473.093Z" fill="#263238"/>
<path d="M45.2461 416.394C48.2472 416.759 51.0434 418.428 53.4425 420.573C55.8415 422.717 57.8962 425.336 59.9792 427.895C66.939 436.442 74.3658 444.466 82.1995 451.902C83.7339 449.429 84.3039 446.166 83.7225 443.185C83.1411 440.204 81.4179 437.556 79.1188 436.111C77.0027 434.78 74.434 434.413 72.6142 432.577C70.6231 430.568 69.9954 427.28 68.4228 424.814C66.7425 422.178 64.1117 420.658 61.5815 419.233C59.0179 417.79 56.4242 416.333 53.6428 415.636C50.8614 414.939 47.7405 414.793 45.2461 416.394Z" fill="#263238"/>
<g opacity="0.1">
<path d="M45.2461 416.394C48.2472 416.759 51.0434 418.428 53.4425 420.573C55.8415 422.717 57.8962 425.336 59.9792 427.895C66.939 436.442 74.3658 444.466 82.1995 451.902C83.7339 449.429 84.3039 446.166 83.7225 443.185C83.1411 440.204 81.4179 437.556 79.1188 436.111C77.0027 434.78 74.434 434.413 72.6142 432.577C70.6231 430.568 69.9954 427.28 68.4228 424.814C66.7425 422.178 64.1117 420.658 61.5815 419.233C59.0179 417.79 56.4242 416.333 53.6428 415.636C50.8614 414.939 47.7405 414.793 45.2461 416.394Z" fill="white"/>
</g>
<path d="M106.068 437.853C110.326 432.085 111.743 423.706 116.791 418.893C121.879 414.042 129.615 413.897 134.068 408.253C134.068 408.253 134.579 408.147 133.743 410.673C132.906 413.199 114.529 434.581 114.529 434.581L106.068 437.853V437.853Z" fill="#263238"/>
<path d="M102.948 449.42C101.584 445.967 102.993 441.326 105.192 438.527C107.391 435.729 110.396 434.114 112.233 430.977C113.657 428.545 114.455 425.569 116.302 423.567C118.515 421.168 121.727 420.683 124.546 419.433C128.691 417.595 132.199 413.859 134.156 409.199C131.788 418.248 126.672 425.999 120.853 432.561C115.034 439.124 108.455 444.68 102.305 450.814" fill="#263238"/>
<g opacity="0.1">
<path d="M102.948 449.42C101.584 445.967 102.993 441.326 105.192 438.527C107.391 435.729 110.396 434.114 112.233 430.977C113.657 428.545 114.455 425.569 116.302 423.567C118.515 421.168 121.727 420.683 124.546 419.433C128.691 417.595 132.199 413.859 134.156 409.199C131.788 418.248 126.672 425.999 120.853 432.561C115.034 439.124 108.455 444.68 102.305 450.814" fill="white"/>
</g>
<path d="M105.23 400.748L102.152 415.848L103.083 416.435L107.305 405.361C107.305 405.361 106.232 401.838 105.23 400.748Z" fill="#263238"/>
<path d="M109.823 399.062C110.684 398.176 111.039 396.783 111.127 395.445C111.214 394.107 111.075 392.759 111.141 391.419C111.31 387.967 112.807 384.824 114.268 381.819C111.949 383.547 110.487 386.556 109.841 389.686C109.196 392.816 109.287 396.087 109.511 399.296" fill="#263238"/>
<path d="M104.343 384.188C103.9 390.006 106.104 396.201 110.077 399.726C110.782 393.848 108.48 387.611 104.343 384.188Z" fill="#EC622D"/>
<path d="M114.969 384.281C111.803 388.133 110.013 393.493 110.107 398.841L110.08 399.726C111.165 397.13 112.811 395.108 114.008 392.58C115.205 390.053 115.926 386.946 114.969 384.281Z" fill="#EC622D"/>
<g opacity="0.3">
<path d="M114.969 384.281C111.803 388.133 110.013 393.493 110.107 398.841L110.08 399.726C111.165 397.13 112.811 395.108 114.008 392.58C115.205 390.053 115.926 386.946 114.969 384.281Z" fill="white"/>
</g>
<path d="M116.534 398.222C113.729 398.261 110.694 398.429 108.52 400.506L109.405 400.241C112.119 401.066 114.946 401.659 117.719 401.176C120.492 400.693 123.225 398.988 124.606 396.128C122.36 398.098 119.339 398.183 116.534 398.222Z" fill="#EC622D"/>
<path d="M104.247 394.648C101.59 392.86 98.4631 392.046 95.4102 392.347C97.529 394.777 100.137 396.617 102.961 397.675C105.404 398.589 108.136 399.009 110.008 401.065C108.69 397.823 106.904 396.437 104.247 394.648Z" fill="#EC622D"/>
<g opacity="0.3">
<path d="M104.247 394.648C101.59 392.86 98.4631 392.046 95.4102 392.347C97.529 394.777 100.137 396.617 102.961 397.675C105.404 398.589 108.136 399.009 110.008 401.065C108.69 397.823 106.904 396.437 104.247 394.648Z" fill="black"/>
</g>
<path d="M100.951 397.919C98.0829 398.349 95.3145 399.507 92.4355 399.823C96.19 402.532 101.032 403.057 105.146 401.202C106.217 400.719 107.968 399.969 109.079 400.302C107.016 397.927 103.819 397.488 100.951 397.919Z" fill="#EC622D"/>
<path d="M105.803 405.446C105.803 405.446 105.841 405.234 105.918 404.894C106.217 403.562 107.097 400.261 108.522 399.993C110.311 399.658 127.774 403.852 127.774 403.852C127.774 403.852 113.815 404.829 110.24 403.6C110.24 403.6 108.359 403.89 106.866 406.514L105.803 405.446Z" fill="#263238"/>
<path d="M102.759 413.89C101.072 420.359 99.6962 426.935 98.5158 433.555C97.3221 440.25 96.3281 446.992 95.4366 453.751C94.9413 457.505 94.4781 461.266 94.0306 465.029C93.9494 465.712 94.8413 466.007 94.9234 465.317C95.7214 458.609 96.5695 451.908 97.5588 445.235C98.5571 438.502 99.6974 431.794 101.086 425.155C101.857 421.47 102.706 417.807 103.652 414.178C103.827 413.509 102.933 413.223 102.759 413.889V413.89Z" fill="#263238"/>
<path d="M110.123 459.771H75.3008V465.589H110.123V459.771Z" fill="#EC622D"/>
<path d="M94.2163 462.68H77.7344L81.2484 483.215C81.7304 486.031 83.8403 488.058 86.2906 488.058H98.2843C101.077 488.058 103.482 485.748 104.031 482.538L107.429 462.68H94.2163Z" fill="#EC622D"/>
<path opacity="0.3" d="M78.2324 465.589H106.932L106.562 467.751H78.6024L78.2324 465.589Z" fill="black"/>
<defs>
<linearGradient id="paint0_linear_25_347" x1="308.67" y1="236.845" x2="308.67" y2="485.489" gradientUnits="userSpaceOnUse">
<stop offset="0.610577" stop-color="#EC622D"/>
<stop offset="0.985577" stop-color="#86381A"/>
</linearGradient>
<linearGradient id="paint1_linear_25_347" x1="325.504" y1="318.47" x2="325.504" y2="338.191" gradientUnits="userSpaceOnUse">
<stop offset="0.610577" stop-color="#EC622D"/>
<stop offset="0.985577" stop-color="#86381A"/>
</linearGradient>
<linearGradient id="paint2_linear_25_347" x1="232.499" y1="224.286" x2="232.499" y2="225.642" gradientUnits="userSpaceOnUse">
<stop offset="0.610577" stop-color="#EC622D"/>
<stop offset="0.985577" stop-color="#86381A"/>
</linearGradient>
<linearGradient id="paint3_linear_25_347" x1="205.15" y1="224.286" x2="205.15" y2="225.642" gradientUnits="userSpaceOnUse">
<stop offset="0.610577" stop-color="#EC622D"/>
<stop offset="0.985577" stop-color="#86381A"/>
</linearGradient>
<linearGradient id="paint4_linear_25_347" x1="308.669" y1="229.033" x2="308.669" y2="236.845" gradientUnits="userSpaceOnUse">
<stop offset="0.610577" stop-color="#EC622D"/>
<stop offset="0.985577" stop-color="#86381A"/>
</linearGradient>
</defs>
</svg>
